<svg version="1.1" id="Layer_1" xmlns="http://www.w3.org/2000/svg" xmlns:xlink="http://www.w3.org/1999/xlink" x="0px" y="0px"
	 width="100%" viewBox="0 0 1115 1145" enable-background="new 0 0 1115 1145" xml:space="preserve">
<path fill="none" opacity="1.000000" stroke="#FFFFFF" stroke-linecap="round" stroke-linejoin="round" stroke-width="8.000000"
	d="
M559.500000,1119.000000 
	C560.403381,1115.487305 563.888611,1116.754395 566.059326,1115.612793 
	C574.572510,1111.135986 583.101868,1106.704224 591.542542,1102.077637 
	C604.547485,1094.949219 618.132935,1088.843018 630.903625,1081.336060 
	C640.826782,1075.503174 651.173828,1070.487549 661.050659,1064.584717 
	C668.461060,1060.156006 676.483643,1056.759155 683.956665,1052.425293 
	C691.063110,1048.303833 698.475098,1044.747803 705.648315,1040.767212 
	C715.013550,1035.570435 724.537476,1030.561890 733.956299,1025.419922 
	C741.551758,1021.273560 749.189392,1017.162720 756.687622,1012.824219 
	C763.500183,1008.882324 770.685486,1005.220581 777.953491,1001.898193 
	C785.330811,998.525818 792.405396,994.460876 799.480286,990.465088 
	C807.019043,986.207275 814.731445,982.304138 822.396423,978.301636 
	C829.316589,974.688110 836.085083,970.682068 843.014099,967.026672 
	C850.462830,963.096924 857.831909,959.026978 865.390747,955.279663 
	C872.366943,951.821350 879.150574,947.801147 886.020996,944.038391 
	C893.930542,939.706421 902.047058,935.753784 909.983948,931.470276 
	C915.566833,928.457214 921.648193,925.904175 926.321350,921.796753 
	C931.198853,917.509766 937.319031,916.642761 942.527588,913.546387 
	C949.666199,909.302734 958.039185,907.095703 963.119507,899.580750 
	C965.091858,896.663208 969.363708,897.138611 972.543823,896.139526 
	C982.457703,893.024719 991.075073,887.512268 1000.028259,882.551025 
	C1006.682495,878.863708 1013.354004,875.121277 1020.136353,871.776428 
	C1024.817749,869.467896 1028.669067,866.660522 1031.916748,862.927551 
	C1033.793701,860.770142 1035.458130,859.666565 1038.483887,859.346924 
	C1046.067017,858.545959 1052.788818,854.941406 1059.508789,851.517212 
	C1064.061035,849.197510 1065.890991,845.251038 1065.945923,840.499390 
	C1066.025269,833.641602 1066.637817,826.706665 1064.472046,820.009033 
	C1064.127686,818.944336 1063.888428,817.982117 1064.505005,817.003174 
	C1066.983643,813.067749 1066.168335,808.653381 1065.868896,804.509460 
	C1065.542603,799.995056 1065.841187,795.483765 1065.452515,791.004150 
	C1064.913940,784.796875 1065.140869,778.698425 1065.824341,772.480713 
	C1066.473999,766.570435 1065.606323,760.500916 1065.517944,754.499756 
	C1065.439331,749.165771 1066.956909,747.625977 1072.500488,747.524048 
	C1078.331787,747.416748 1084.166992,747.542603 1089.999878,747.487549 
	C1095.396851,747.436584 1096.440186,746.396729 1096.487183,740.999878 
	C1096.542236,734.667053 1097.044189,728.275391 1096.377319,722.013062 
	C1095.271851,711.631714 1097.277466,701.334778 1096.512695,690.999084 
	C1096.298584,688.106750 1097.030029,685.118408 1095.070923,682.447937 
	C1094.593994,681.797852 1094.745605,680.417358 1095.039429,679.512817 
	C1097.871704,670.793884 1097.692749,661.465698 1095.985718,653.104980 
	C1094.372070,645.201538 1095.313843,638.067261 1095.909790,630.492920 
	C1097.650635,608.370850 1098.661011,586.194885 1097.934692,564.002136 
	C1097.443604,548.990967 1096.872437,533.945312 1095.357422,519.014465 
	C1093.642944,502.118347 1091.451538,485.218567 1088.352661,468.527344 
	C1083.893555,444.509216 1077.957642,420.806427 1070.540161,397.487213 
	C1062.966309,373.676147 1053.823364,350.553864 1043.158325,327.925415 
	C1032.395752,305.090149 1020.418152,283.069672 1006.600464,261.934326 
	C990.859863,237.857925 973.208984,215.374374 954.070129,193.937378 
	C938.316528,176.292084 921.221863,160.075363 903.454834,144.551712 
	C888.650208,131.616562 872.776306,119.992821 856.449646,109.075294 
	C836.938538,96.028366 816.594299,84.369949 795.531738,73.935959 
	C776.482544,64.499359 756.762695,56.620304 736.909790,49.242836 
	C721.528259,43.526981 705.434326,39.594509 689.470642,35.617851 
	C674.505371,31.889915 659.325073,28.939476 643.994690,27.042681 
	C631.520691,25.499296 618.941223,24.727962 606.518188,22.877853 
	C596.175232,21.337530 585.790527,21.804976 575.499695,21.793262 
	C563.868286,21.780025 552.168579,21.808540 540.466919,23.227272 
	C529.371338,24.572517 518.120911,25.134558 507.010223,26.578672 
	C491.900391,28.542576 476.930756,31.388319 461.973724,34.368053 
	C447.619629,37.227665 433.695190,41.620373 419.539062,45.156380 
	C410.166229,47.497589 401.039978,51.012623 392.028564,54.572296 
	C377.090240,60.473202 362.079926,66.296715 347.570374,73.148987 
	C332.682526,80.179886 318.081726,87.891869 303.999420,96.499046 
	C284.042511,108.696823 264.762207,121.890846 246.531906,136.539703 
	C223.782211,154.820084 201.885025,174.035461 181.931381,195.436020 
	C167.939819,210.442123 154.834274,226.143097 142.524796,242.518646 
	C124.331070,266.722229 108.274681,292.300049 93.998466,318.999176 
	C84.000244,337.697632 75.054619,356.912872 67.119415,376.548248 
	C61.318211,390.903229 56.576164,405.676208 51.749001,420.417816 
	C46.393768,436.772034 42.035797,453.384430 38.369942,470.081207 
	C36.146626,480.207825 33.325611,490.404327 32.816830,500.991211 
	C32.586014,505.794189 31.190035,510.642670 30.352390,515.474426 
	C28.367271,526.925232 27.707415,538.484192 26.465881,549.996338 
	C24.296078,570.115906 23.537920,590.320312 24.213961,610.492859 
	C24.587725,621.645691 24.793833,632.871094 26.123539,643.985229 
	C26.280783,645.299500 26.274145,646.114868 25.496635,646.997009 
	C22.693628,650.177246 22.213087,653.960510 22.485891,658.000977 
	C22.970999,665.185791 21.163273,672.593689 24.547434,679.476685 
	C24.878946,680.150940 24.788992,680.361694 24.559364,681.020691 
	C20.929466,691.437622 21.980585,701.973267 24.090017,712.481934 
	C24.218864,713.123901 24.696976,713.953308 24.455641,714.479675 
	C20.356905,723.420532 23.434269,732.851562 22.522898,742.002258 
	C22.171263,745.532837 24.558924,746.543640 27.497442,747.015930 
	C33.482449,747.977844 39.501080,747.290405 45.500313,747.490601 
	C48.039062,747.575439 50.692566,747.087463 52.964466,748.554993 
	C53.693916,749.026184 54.373470,749.123291 54.991665,748.967041 
	C67.894791,745.704590 81.005371,748.152283 94.004944,747.621033 
	C97.952446,747.459778 101.822006,749.767822 105.719566,746.242798 
	C106.711113,745.346008 110.299248,747.609314 113.001068,747.565125 
	C122.998390,747.401428 133.050980,746.875977 142.984695,747.687439 
	C151.724609,748.401489 160.331955,746.931396 169.001465,747.476807 
	C170.324310,747.559937 171.798462,747.661072 172.975037,747.187927 
	C176.378891,745.819336 179.634766,745.871765 183.007355,747.231750 
	C188.282074,749.358765 193.651062,747.747925 199.001572,747.540466 
	C209.661224,747.127014 220.337494,747.965881 231.005890,747.070129 
	C234.458572,746.780212 235.737869,745.447327 236.089294,742.009155 
	C236.771805,735.331848 236.269073,728.664795 236.515030,722.000549 
	C236.582809,720.163574 236.833344,718.333313 237.000000,716.500000 
"/>
<path fill="none" opacity="1.000000" stroke="#FFFFFF" stroke-linecap="round" stroke-linejoin="round" stroke-width="9.000000"
	d="
M951.000000,644.000000 
	C951.833313,635.833313 953.129822,627.682068 953.401611,619.496704 
	C953.932495,603.505005 954.832214,587.523499 954.592102,571.498596 
	C954.424561,560.319946 953.345520,549.195312 953.290771,538.001038 
	C953.257324,531.162170 951.399902,524.281555 949.900818,517.521973 
	C949.160461,514.183716 949.407410,510.805908 948.806274,507.445221 
	C948.113281,503.571106 947.482361,499.977661 945.608521,496.442474 
	C944.372620,494.110809 945.504089,491.195038 945.135681,488.481598 
	C944.279785,482.177399 942.687744,476.111084 941.175049,469.956970 
	C939.154663,461.737671 936.207825,453.788605 934.492188,445.501617 
	C934.386047,444.989075 934.215027,444.477356 933.992920,444.003326 
	C928.331909,431.920319 926.871948,418.136566 920.271851,406.630859 
	C912.303162,392.739197 908.757996,376.651642 898.497192,364.002289 
	C896.089111,361.033783 895.520935,357.216675 893.657227,353.911346 
	C883.358276,335.645752 871.014648,318.856598 858.010559,302.491577 
	C842.833008,283.391296 826.017029,265.814362 807.404724,250.112915 
	C792.980774,237.944748 777.811646,226.716965 761.609192,216.821259 
	C749.526855,209.441971 737.235901,202.585022 724.477295,196.548019 
	C714.544373,191.848022 704.331909,187.791229 694.095154,183.758484 
	C686.799500,180.884399 679.304016,178.381851 671.901001,176.363113 
	C662.247925,173.730804 652.550659,170.866928 642.537964,169.262909 
	C635.701477,168.167694 628.883606,166.046524 621.990601,165.673477 
	C611.914185,165.128128 602.027161,162.789566 591.997925,162.626541 
	C578.007385,162.399109 563.989197,161.914978 549.999512,162.993454 
	C549.336731,163.044540 548.454224,162.721176 548.032471,163.042572 
	C543.114197,166.789886 537.403625,165.291245 531.998657,165.456543 
	C519.214539,165.847519 506.912994,168.128540 494.937042,172.839951 
	C490.323273,174.655060 485.024445,174.885101 479.994202,175.448303 
	C472.623688,176.273575 465.877411,179.309372 459.098328,181.770782 
	C453.388580,183.843948 446.926208,184.731400 442.078522,188.598434 
	C436.074249,193.388077 428.508026,194.077744 421.895447,197.284393 
	C412.537109,201.822495 403.567444,206.976501 394.487061,211.976486 
	C391.092865,213.845444 387.633759,215.542221 385.486938,218.991882 
	C385.036316,219.716019 384.484619,220.291519 383.507385,220.530212 
	C372.998138,223.096954 365.745880,230.900009 357.552399,237.069595 
	C339.872894,250.381973 323.774597,265.538910 308.569275,281.565735 
	C292.923950,298.056305 278.766418,315.767914 266.397522,334.933868 
	C259.085266,346.264343 252.138474,357.778412 245.490494,369.494598 
	C237.709534,383.207642 230.953049,397.500977 225.254959,412.099518 
	C218.213913,430.138763 211.915680,448.580933 207.628326,467.529022 
	C205.381134,477.460510 202.756348,487.299713 201.224091,497.458374 
	C199.464920,509.121338 197.352615,520.685913 196.345657,532.486816 
	C195.363754,543.994141 193.452744,555.452148 193.077911,567.002502 
	C192.405350,587.727844 193.180801,608.417175 195.954391,629.006165 
	C196.442505,632.629517 196.494888,636.335388 196.448166,639.999329 
	C196.411728,642.855530 197.424973,645.056335 200.022446,645.933533 
	C204.232086,647.355164 208.242996,649.321960 213.004211,649.084473 
	C224.322479,648.520142 235.675507,648.871033 247.002014,648.792969 
	C253.324112,648.749390 259.641052,647.927673 266.007355,648.401245 
	C272.140076,648.857483 278.333679,648.536926 284.499786,648.478760 
	C286.502136,648.459900 288.482117,648.441467 290.515747,648.091492 
	C295.423096,647.246887 296.641144,647.973511 297.416504,653.012817 
	C298.588531,660.630310 298.336761,668.340637 297.472198,675.996887 
	C297.049500,679.740295 294.756744,681.076111 290.999908,681.070496 
	C284.168701,681.060303 277.232635,680.104431 270.523193,681.603760 
	C264.290283,682.996643 258.523132,681.956970 253.052536,679.388123 
	C249.789917,677.856079 247.722198,680.400391 245.009369,680.617249 
	C238.665314,681.124512 232.333939,680.878052 225.999771,680.986755 
	C213.667221,681.198608 201.333664,681.437622 188.999924,681.477600 
	C165.333511,681.554321 141.657745,681.903687 118.002640,681.380676 
	C96.496941,680.905273 74.996628,680.934021 53.501549,681.152344 
	C45.676884,681.231873 37.830544,681.172180 29.998730,681.466125 
	C28.473175,681.523376 27.170900,680.064270 25.500000,680.500000 
"/>
<path fill="none" opacity="1.000000" stroke="#FFFFFF" stroke-linecap="round" stroke-linejoin="round" stroke-width="10.000000"
	d="
M54.500000,749.500000 
	C54.500000,756.833313 54.481628,764.166748 54.509472,771.499939 
	C54.519901,774.247681 54.056683,777.067749 55.955578,779.534180 
	C56.420425,780.137939 56.712349,781.323059 56.442818,781.976379 
	C52.740139,790.951050 55.292339,800.343445 54.476730,809.497925 
	C54.028019,814.534363 57.714493,819.112305 55.186485,824.586121 
	C53.166092,828.960876 54.736008,834.168457 54.514446,839.000671 
	C54.292545,843.840393 55.722713,847.681458 60.473808,850.052490 
	C68.033936,853.825378 74.704323,859.654724 84.006653,859.114624 
	C85.973328,859.000427 88.077797,860.208313 89.013412,862.494507 
	C90.623642,866.429016 94.129196,868.737305 97.556541,870.382202 
	C112.237297,877.427673 126.277077,885.624695 140.529510,893.446228 
	C144.663925,895.715149 149.450699,896.335205 154.002151,897.491516 
	C155.542618,897.882874 157.598038,897.651978 158.435715,899.038818 
	C163.757202,907.848755 172.999390,911.090271 181.589203,914.793091 
	C187.358948,917.280212 192.467102,920.765259 197.904022,923.679077 
	C209.272690,929.771912 220.765869,935.683899 231.901901,942.168457 
	C239.066330,946.340393 246.517593,950.034668 253.701248,954.148560 
	C260.529816,958.059021 267.721436,961.726868 274.893372,965.218994 
	C281.691772,968.529297 288.248199,972.483826 294.986816,976.025085 
	C302.710236,980.083740 310.492584,984.071533 317.938721,988.600769 
	C322.226898,991.209229 326.837860,993.132935 331.104950,995.834229 
	C337.878387,1000.122070 345.347534,1003.305908 352.495880,1007.007996 
	C359.181854,1010.470703 366.008728,1013.707947 372.453186,1017.577942 
	C379.634735,1021.890625 387.051819,1025.708130 394.491333,1029.516968 
	C398.207794,1031.419678 401.800690,1033.562866 405.505768,1035.488892 
	C420.189758,1043.122559 434.800293,1050.929565 449.346344,1058.784546 
	C463.578094,1066.469604 477.877747,1074.086060 492.006042,1081.989136 
	C501.641174,1087.379028 511.157990,1093.021118 521.043518,1097.911987 
	C533.941223,1104.293335 546.036316,1112.244507 559.500000,1117.500000 
"/>
<path fill="none" opacity="1.000000" stroke="#FFFFFF" stroke-linecap="round" stroke-linejoin="round" stroke-width="11.000000"
	d="
M894.500000,793.999939 
	C892.500000,794.333313 890.390747,794.371277 888.523010,795.062134 
	C884.778809,796.447327 881.252380,796.684448 877.476868,795.053528 
	C873.365417,793.277466 868.848145,793.804504 864.497375,793.543579 
	C860.938721,793.330078 857.261047,793.879761 854.035095,791.941589 
	C853.124695,791.394775 852.179626,791.290833 851.523376,791.557556 
	C843.719604,794.729675 835.870667,794.092041 828.012268,791.954956 
	C826.995972,791.678528 826.192566,790.985291 824.991211,791.478577 
	C814.439453,795.811523 803.332642,793.951416 792.502563,793.806763 
	C782.004395,793.666382 771.499207,793.563110 760.999939,793.544739 
	C748.333557,793.522522 735.666870,793.960205 723.000000,793.977051 
	C678.500061,794.036133 633.997070,794.258179 589.502808,793.753601 
	C581.816345,793.666382 574.178467,793.114014 566.494934,793.953491 
	C562.770691,794.360291 558.998718,793.965454 555.535278,792.420959 
	C554.621277,792.013367 553.585205,791.745483 553.038452,792.065613 
	C547.779968,795.145081 542.038269,793.895447 536.499512,793.948792 
	C521.167603,794.096619 505.833313,794.013855 490.500000,793.994324 
	C482.476562,793.984131 479.707458,791.353882 478.458862,783.506531 
	C476.603088,771.843079 476.190552,760.037598 473.362640,748.411804 
	C471.635010,741.309204 472.887634,733.290466 470.871552,726.035706 
	C468.032867,715.820984 468.614838,705.278931 466.840973,695.027527 
	C465.830292,689.186707 463.718353,683.501831 463.524567,677.499207 
	C463.024200,662.000061 458.281616,647.058533 457.772858,631.507446 
	C457.572205,625.374817 454.745605,619.359131 454.473053,613.001160 
	C453.964386,601.137024 449.955780,589.722839 449.221161,577.986145 
	C448.325562,563.677612 443.937042,549.927002 443.741791,535.503479 
	C443.659241,529.403809 441.032288,523.290283 440.489136,517.000916 
	C440.042542,511.829681 439.393616,506.673676 439.052490,501.496552 
	C438.916412,499.431488 438.657257,497.457489 438.013092,495.495697 
	C435.971466,489.277771 430.828644,487.406097 424.976379,490.454651 
	C419.692871,493.206848 414.222321,494.252594 407.978699,493.783997 
	C402.097931,493.342621 396.005646,492.949371 389.987915,493.925507 
	C385.561707,494.643463 381.485168,492.740204 377.504669,490.989349 
	C376.141785,490.389862 374.899933,489.411133 373.488739,489.043243 
	C366.569061,487.239166 363.498444,489.296722 361.508850,497.002289 
	C358.972290,506.826172 356.512970,516.670044 353.996552,526.499146 
	C351.018616,538.130859 348.313110,549.851013 345.203552,561.420349 
	C343.005188,569.599609 341.377350,577.963440 338.631226,586.044617 
	C335.868286,594.175293 334.130615,602.657532 332.009338,611.002380 
	C329.469879,620.992371 327.030182,631.007690 324.490723,640.997620 
	C322.369446,649.342468 320.311554,657.707764 317.962402,665.989319 
	C315.181274,675.793640 312.627960,685.695496 310.315826,695.573914 
	C308.254242,704.381836 305.527771,713.036499 303.769226,721.954468 
	C302.113098,730.352966 300.141418,738.872803 297.219879,746.898010 
	C295.278961,752.229614 295.042236,757.762085 293.206085,763.071289 
	C290.418243,771.132141 288.976715,779.661194 287.011322,788.002686 
	C286.212097,791.394714 282.761169,793.866699 277.999207,793.958618 
	C274.820374,794.019897 271.842010,794.227478 268.960724,795.933655 
	C266.050812,797.656799 262.938873,795.856506 260.024750,795.356018 
	C257.871307,794.986145 255.834351,793.773376 253.500000,794.000000 
"/>
<path fill="none" opacity="1.000000" stroke="#FFFFFF" stroke-linecap="round" stroke-linejoin="round" stroke-width="6.000000"
	d="
M412.500000,495.000000 
	C414.744507,502.189880 414.589966,509.592804 414.548492,517.000244 
	C414.541046,518.331665 414.844421,519.876953 415.554108,520.964722 
	C419.216064,526.577637 417.892090,532.911621 418.659027,538.979919 
	C419.441864,545.174072 418.671326,551.610962 421.837097,557.586304 
	C423.417877,560.569946 423.550659,564.411804 423.512512,568.000122 
	C423.423859,576.340088 423.797607,584.452148 426.721252,592.600037 
	C428.685638,598.074585 428.197845,604.492126 428.437561,610.502502 
	C428.629944,615.326477 428.253998,620.154663 430.981445,624.511597 
	C432.403046,626.782471 432.705963,629.413330 432.463867,631.996643 
	C431.833160,638.726868 433.799438,645.294434 433.531708,652.001282 
	C433.383057,655.726013 436.605591,658.331360 437.068970,661.991272 
	C437.745453,667.334290 437.356873,672.666199 437.488190,678.000305 
	C437.596344,682.393494 438.840576,686.394287 440.235199,690.588074 
	C441.998352,695.890137 442.178467,701.819458 442.406830,707.503723 
	C442.654938,713.681030 442.305542,719.851074 445.478485,725.512085 
	C446.504578,727.342712 446.695648,729.420959 446.493561,731.499390 
	C445.840302,738.217896 447.742706,744.790466 447.583649,751.501953 
	C447.508179,754.686523 450.109375,757.207947 450.681549,760.468140 
	C451.124481,762.991882 451.685181,765.486084 451.454865,767.995850 
	C450.703430,776.184509 452.862244,784.031738 454.000000,792.000000 
"/>
<path fill="none" opacity="1.000000" stroke="#FFFFFF" stroke-linecap="round" stroke-linejoin="round" stroke-width="6.000000"
	d="
M388.500000,495.000000 
	C386.142822,502.612823 386.120911,510.833008 382.089172,518.049805 
	C380.356018,521.152161 381.844269,525.018982 380.642700,528.548584 
	C379.406860,532.178894 377.611847,535.532043 376.760925,539.448059 
	C374.490723,549.895813 372.697052,560.538574 368.513092,570.505493 
	C367.782990,572.244690 367.351837,574.071655 367.487701,576.000854 
	C367.557770,576.995911 367.851410,578.179871 367.445801,578.972229 
	C363.249969,587.169434 363.383575,596.606812 359.890045,604.953979 
	C359.109100,606.819946 358.754181,608.570129 358.446655,610.491455 
	C357.761505,614.772461 356.128235,619.021790 355.400330,623.071960 
	C353.719452,632.424805 349.220734,640.986633 348.472961,650.497864 
	C348.327667,652.345947 348.416199,654.630127 347.393982,655.915710 
	C343.908569,660.299194 345.203705,665.880859 343.314575,670.422852 
	C340.401672,677.426086 340.285370,685.026794 337.753448,691.909302 
	C336.092957,696.423035 335.642609,701.057129 334.254852,705.422058 
	C331.993225,712.535583 330.792175,719.856567 328.694061,726.908997 
	C327.452026,731.083801 325.549927,734.969421 325.421997,739.497803 
	C325.347900,742.119934 324.298523,744.607483 323.065674,747.033386 
	C321.342224,750.424622 320.265228,754.086914 320.493195,758.000427 
	C320.576141,759.424744 320.049744,760.693481 319.536713,762.014282 
	C317.966553,766.057007 316.125305,770.047241 316.005219,774.500122 
	C315.836304,780.762939 311.225433,786.031555 312.000000,792.500000 
"/>
<path fill="none" opacity="1.000000" stroke="#FFFFFF" stroke-linecap="round" stroke-linejoin="round" stroke-width="6.000000"
	d="
M881.500000,797.000000 
	C879.748535,800.293091 876.941223,802.047485 873.550293,803.609192 
	C865.229675,807.441528 857.216431,811.934814 848.985168,815.969849 
	C841.555115,819.612427 833.984863,822.968079 826.504089,826.508606 
	C818.485901,830.303528 810.485657,834.137085 802.503906,838.008057 
	C793.986511,842.138855 785.504517,846.342529 776.998352,850.496582 
	C771.840820,853.015259 766.673218,855.513672 761.498474,857.996704 
	C754.004517,861.592651 746.498840,865.164246 739.000305,868.750610 
	C731.165649,872.497864 723.391113,876.377625 715.480591,879.957214 
	C709.770935,882.540894 704.224976,885.537476 698.672791,888.342102 
	C694.140625,890.631531 688.951843,891.819519 684.897827,895.383789 
	C682.164062,897.787415 678.202454,898.511536 674.876099,900.264954 
	C668.337158,903.711975 661.384094,906.390747 654.958191,910.179138 
	C652.450195,911.657715 649.351807,910.959351 646.500000,911.000000 
"/>
<path fill="none" opacity="1.000000" stroke="#FFFFFF" stroke-linecap="round" stroke-linejoin="round" stroke-width="6.000000"
	d="
M267.500000,797.000000 
	C268.979706,800.343933 271.603912,801.929504 274.867798,803.738525 
	C283.105042,808.304077 291.632538,812.328369 300.105988,816.272278 
	C311.127197,821.402222 321.956482,826.928223 332.943054,832.120544 
	C341.018066,835.936768 349.318420,839.333008 357.041473,843.930359 
	C360.670776,846.090759 364.668091,847.781006 368.568817,849.326294 
	C373.401917,851.240906 377.695953,854.095093 382.473938,856.063293 
	C392.333588,860.124573 401.931671,864.905151 411.341736,869.804016 
	C419.198914,873.894348 427.245422,877.738464 435.142975,881.716125 
	C442.920868,885.633484 450.860931,889.470581 458.876892,893.027466 
	C463.289459,894.985413 467.753143,897.615601 472.140625,899.704651 
	C479.001007,902.971069 485.622894,907.947083 494.000000,907.000000 
"/>
<path fill="none" opacity="1.000000" stroke="#FFFFFF" stroke-linecap="round" stroke-linejoin="round" stroke-width="5.000000"
	d="
M385.500000,220.000000 
	C396.257202,230.793610 409.351929,238.524475 421.373993,247.665726 
	C433.248413,256.694672 445.612885,265.010162 457.571106,273.904388 
	C467.388977,281.206665 477.865112,287.620026 487.990021,294.514648 
	C496.205780,300.109192 504.088684,306.234863 512.562134,311.398010 
	C523.077820,317.805664 533.155212,324.905853 543.295593,331.800629 
	C552.498962,338.058228 562.903564,342.617676 571.000000,350.500000 
"/>
<path fill="none" opacity="1.000000" stroke="#FFFFFF" stroke-linecap="round" stroke-linejoin="round" stroke-width="8.000000"
	d="
M537.500000,933.000000 
	C537.229675,935.781494 535.185547,937.694397 533.939270,939.966675 
	C525.363464,955.602844 527.393066,975.600769 537.965759,989.526001 
	C548.758240,1003.740356 563.318909,1009.028442 580.488953,1007.384460 
	C592.331299,1006.250671 602.461731,1000.865723 609.955322,991.464417 
	C621.109924,977.470032 623.610413,961.819397 617.407227,945.034302 
	C615.872803,940.882507 614.486389,936.506775 611.500000,933.000000 
"/>
<path fill="none" opacity="1.000000" stroke="#FFFFFF" stroke-linecap="round" stroke-linejoin="round" stroke-width="5.000000"
	d="
M435.000000,194.000000 
	C437.024017,199.309326 441.813782,202.035721 446.073883,204.889694 
	C456.310944,211.747818 465.919617,219.445908 476.003937,226.494354 
	C484.151184,232.188828 492.338257,237.826218 500.498535,243.502136 
	C507.672302,248.491898 514.806824,253.538467 522.006958,258.489899 
	C530.310364,264.200043 538.635437,269.880066 547.010925,275.483643 
	C552.620056,279.236359 558.344421,282.816345 563.997437,286.503876 
	C573.173523,292.489532 582.435181,298.351471 591.467712,304.547058 
	C598.672302,309.488800 606.484192,313.541992 613.029053,319.467926 
	C616.868652,322.944458 620.101013,322.529480 624.560608,320.111755 
	C629.461426,317.454742 634.781128,315.528076 640.021057,313.555908 
	C642.827148,312.499725 645.972900,312.203705 648.465027,310.450287 
	C650.649170,308.913513 652.932983,308.502960 655.498718,308.443481 
	C657.338745,308.400848 659.369934,308.236481 660.965698,307.431976 
	C668.974731,303.394348 674.036987,304.724365 681.150513,309.788605 
	C687.506042,314.313202 693.742737,319.225250 700.960327,322.585175 
	C704.729858,324.339966 708.265808,326.191650 712.354980,327.465546 
	C716.336304,328.705811 719.500793,333.993164 720.241028,338.542145 
	C720.968994,343.015747 722.849243,347.264923 722.665527,352.006409 
	C722.550781,354.966248 724.041565,357.797302 725.650513,360.694122 
	C727.595825,364.196747 727.900146,369.146881 726.468750,373.489716 
	C725.065674,377.746552 726.431641,382.186432 729.422791,385.568298 
	C732.869324,389.464996 736.982178,391.086212 741.976440,392.114441 
	C759.786194,395.781250 776.280396,402.908722 792.032410,411.943451 
	C799.655151,416.315582 807.277649,420.709259 815.424316,424.177765 
	C818.143494,425.335510 820.503845,424.839691 823.002380,424.940552 
	C828.418945,425.159149 833.694336,424.737976 838.644348,428.299347 
	C840.968018,429.971100 844.831421,429.512329 848.000916,429.994141 
	C849.328857,430.196045 851.038940,429.863495 851.939087,430.576843 
	C857.485657,434.971954 864.205688,434.594299 870.506470,434.811340 
	C876.674133,435.023773 882.034180,437.932129 887.984070,438.634827 
	C889.131958,438.770416 890.351257,438.979279 891.499451,438.961914 
	C902.499390,438.795471 913.508423,439.465668 924.504639,438.555847 
	C926.255676,438.410919 927.870728,438.020325 929.500000,437.500000 
"/>
<path fill="none" opacity="1.000000" stroke="#FFFFFF" stroke-linecap="round" stroke-linejoin="round" stroke-width="5.000000"
	d="
M494.000000,174.000000 
	C497.317108,182.349564 505.128296,186.262222 511.555481,191.431000 
	C521.006958,199.031937 530.771606,206.249893 540.517517,213.476379 
	C550.103943,220.584625 559.855774,227.469208 569.493652,234.508728 
	C579.022705,241.468872 588.198792,248.966461 598.093445,255.355255 
	C606.291504,260.648560 614.258362,266.309204 622.331848,271.749542 
	C630.126160,277.001709 638.057434,282.166565 645.614075,287.848236 
	C650.758179,291.715942 656.845093,294.351898 661.493225,299.006775 
	C663.005798,300.521484 664.919434,301.731140 665.500000,304.000000 
"/>
<path fill="none" opacity="1.000000" stroke="#FFFFFF" stroke-linecap="round" stroke-linejoin="round" stroke-width="8.000000"
	d="
M641.500000,917.500000 
	C645.412476,925.258667 649.355896,932.952332 651.643982,941.461304 
	C652.846741,945.934265 656.920593,948.188171 661.501648,948.990723 
	C666.621704,949.887695 671.278809,952.410034 676.492615,953.059265 
	C679.732178,953.462524 681.075134,955.918030 681.513672,958.998047 
	C682.538635,966.196350 680.735168,970.591003 675.996521,971.988159 
	C671.846619,973.211731 667.717468,974.582703 663.488586,975.444092 
	C656.385132,976.890869 652.029053,980.406067 650.295959,987.953125 
	C648.963867,993.753662 646.415894,999.429199 642.981445,1004.487366 
	C640.359497,1008.348816 641.324768,1011.898376 643.488281,1015.507019 
	C646.368958,1020.311951 649.326599,1025.081787 651.949829,1030.026611 
	C654.079895,1034.041748 653.200317,1037.013306 649.500000,1040.500000 
	C645.477234,1044.290527 642.497192,1045.031982 638.509460,1042.981689 
	C633.470459,1040.390747 628.253906,1038.033447 623.571899,1034.892822 
	C619.234375,1031.983032 615.271606,1033.146240 611.552185,1035.099365 
	C605.595581,1038.227051 599.551636,1040.943970 593.001099,1042.504639 
	C588.709534,1043.527222 586.209595,1046.414673 585.013489,1050.503906 
	C583.458252,1055.821167 582.210632,1061.237549 580.444031,1066.481201 
	C578.453918,1072.387939 572.664917,1075.456665 567.035461,1073.402832 
	C563.207581,1072.006348 562.172852,1068.050781 561.000549,1064.499756 
	C559.477783,1059.887329 559.020569,1055.016724 557.113586,1050.452515 
	C555.640686,1046.927246 553.648987,1044.723755 550.024597,1043.431030 
	C543.204041,1040.998291 536.340149,1038.547485 530.030029,1034.947388 
	C525.425476,1032.320190 521.228516,1032.901978 517.002930,1035.504761 
	C511.399811,1038.956299 505.821075,1042.442627 499.517151,1044.551270 
	C499.216827,1044.651733 499.166656,1045.500000 499.000000,1046.000000 
"/>
<path fill="none" opacity="1.000000" stroke="#FFFFFF" stroke-linecap="round" stroke-linejoin="round" stroke-width="5.000000"
	d="
M752.000000,456.000000 
	C757.606995,453.805023 763.289795,454.755981 769.009644,455.416595 
	C770.395203,455.576630 771.382446,456.023193 771.963745,457.021118 
	C774.114502,460.713593 777.147400,462.165985 781.471130,462.723785 
	C784.923157,463.169128 787.893494,465.959320 791.462708,467.115173 
	C797.927612,469.208801 804.013123,472.558838 810.540527,474.352539 
	C817.992371,476.400269 824.573425,481.003143 832.497681,481.534332 
	C833.847290,481.624817 835.432556,481.808563 836.451660,482.565155 
	C839.928833,485.146637 844.076111,485.067810 847.963135,486.134247 
	C855.887085,488.308197 863.529297,491.592560 872.000000,491.000000 
	C881.086121,497.075317 891.596619,494.794983 901.508911,495.921356 
	C905.037476,496.322296 908.703857,496.890930 911.924133,497.776031 
	C920.490540,500.130371 929.008179,498.341614 937.504089,498.942474 
	C940.196533,499.132874 942.173767,496.354584 945.000000,496.500000 
"/>
<path fill="none" opacity="1.000000" stroke="#FFFFFF" stroke-linecap="round" stroke-linejoin="round" stroke-width="13.000000"
	d="
M429.000000,148.000000 
	C440.535706,148.368179 443.334076,140.149475 442.070435,131.489716 
	C441.201355,125.534050 438.478333,120.193619 436.705994,114.593040 
	C433.947327,105.875847 430.980896,97.172256 427.926697,88.525894 
	C426.763428,85.232674 425.087921,82.052376 422.507019,79.492928 
	C416.976929,74.008804 407.605225,74.520691 402.476929,80.480148 
	C399.179504,84.312035 399.597534,89.248352 400.746185,92.923050 
	C405.492249,108.106621 410.953979,123.080963 416.615875,137.955887 
	C418.585297,143.129929 421.805084,147.900558 428.500000,148.000000 
"/>
<path fill="none" opacity="1.000000" stroke="#FFFFFF" stroke-linecap="round" stroke-linejoin="round" stroke-width="8.000000"
	d="
M501.500000,916.500000 
	C497.053680,924.261108 492.937408,932.083130 490.788910,940.948853 
	C489.919891,944.534790 487.218597,947.577820 482.549622,948.705444 
	C477.355469,949.959961 472.150116,951.448792 467.008301,953.027039 
	C461.379913,954.754517 460.300934,956.635071 460.500000,963.500000 
	C460.642273,968.406250 462.434326,970.540955 467.497101,972.009949 
	C471.345001,973.126465 475.113342,975.066223 479.010925,975.349792 
	C487.520386,975.968689 490.601868,981.569153 492.455170,988.511963 
	C493.824097,993.639893 495.772217,998.500061 498.544861,1002.972168 
	C501.208160,1007.267700 500.837677,1011.336975 498.498077,1015.498901 
	C496.340424,1019.337280 494.469055,1023.380859 491.937347,1026.955566 
	C486.577789,1034.523560 490.484314,1041.815430 499.000000,1044.500000 
"/>
<path fill="none" opacity="1.000000" stroke="#FFFFFF" stroke-linecap="round" stroke-linejoin="round" stroke-width="13.000000"
	d="
M947.000000,357.000000 
	C950.731934,356.972107 953.875122,355.184296 956.986694,353.475769 
	C969.019470,346.868744 981.143372,340.407013 992.927612,333.378632 
	C997.473633,330.667236 1002.276855,327.772705 1002.623535,321.006317 
	C1003.127319,311.176788 993.489929,303.608582 982.572754,309.143433 
	C968.276062,316.391663 954.456055,324.589600 940.520752,332.536438 
	C934.610779,335.906708 932.097839,341.321503 933.499939,346.500000 
	C935.371582,353.412537 939.550842,356.788055 946.500000,357.000000 
"/>
<path fill="none" opacity="1.000000" stroke="#FFFFFF" stroke-linecap="round" stroke-linejoin="round" stroke-width="8.000000"
	d="
M618.500000,892.000000 
	C615.091980,891.239929 612.030823,889.905273 608.867676,888.253357 
	C604.574646,886.011169 600.024902,883.722107 595.003845,882.974243 
	C588.992432,882.078857 585.817932,878.277893 584.461548,872.509033 
	C583.314819,867.631836 581.935486,862.802185 580.474915,858.007629 
	C578.518066,851.584045 573.315125,851.774780 567.998413,851.953369 
	C563.258728,852.112610 563.142334,856.158386 561.480469,858.988525 
	C560.104431,861.331848 559.435608,864.199768 559.231934,866.520386 
	C558.299500,877.144531 552.273254,882.324463 542.515137,884.565979 
	C539.252625,885.315369 535.763306,886.252502 533.080444,888.115845 
	C526.664612,892.571960 520.647461,891.723083 514.508118,887.986633 
	C511.440552,886.119751 508.240570,884.540344 505.040222,882.920532 
	C499.065063,879.896484 497.592590,879.767944 493.500000,883.500000 
	C489.576019,887.078247 488.741943,891.325562 490.989258,896.005188 
	C491.635193,897.350220 492.961365,898.255920 493.038177,899.998291 
	C493.312714,906.226440 497.452362,910.468140 500.994812,915.004028 
	C501.770233,915.996887 502.825073,916.199951 503.980072,916.563354 
	C514.002747,919.716675 523.514404,924.042603 532.495789,929.506958 
	C534.969299,931.011841 537.262024,933.038147 540.526611,931.558716 
	C540.765869,931.450256 541.415344,931.191162 542.067932,931.940857 
	C546.464844,936.992615 553.002380,938.671936 558.550598,941.913391 
	C562.455444,944.194824 566.806091,945.732300 571.009460,947.477234 
	C573.865845,948.662964 577.030396,948.487793 579.442200,946.911560 
	C587.287415,941.784241 596.852783,939.869568 604.035767,933.540649 
	C604.940552,932.743408 606.514221,931.844666 607.470093,932.108459 
	C612.948669,933.620117 615.677429,929.211487 619.546448,927.084534 
	C625.874695,923.605408 632.365173,920.335815 639.046326,917.613708 
	C643.676208,915.727417 646.415100,913.046875 646.489746,907.999878 
	C646.555054,903.586548 649.009338,900.137146 651.006104,896.503357 
	C654.042175,890.978333 653.809631,888.987854 649.500061,884.499939 
	C644.888428,879.697388 643.348083,879.400574 637.506958,882.513062 
	C632.306946,885.283936 627.123108,888.091980 622.034607,891.059387 
	C620.943237,891.695862 619.986938,891.254944 619.000000,891.500000 
"/>
<path fill="none" opacity="1.000000" stroke="#FFFFFF" stroke-linecap="round" stroke-linejoin="round" stroke-width="5.000000"
	d="
M542.500000,166.500000 
	C544.492676,170.990829 547.613586,174.338562 551.378540,177.638611 
	C565.473816,189.993454 580.848572,200.730240 595.067383,212.921432 
	C602.011536,218.875351 609.839294,223.786682 616.959351,229.550247 
	C627.517212,238.096619 638.526367,246.019226 649.498169,254.002533 
	C655.706360,258.519714 662.075562,262.815857 668.354370,267.208191 
	C674.187622,271.288879 679.693665,275.652771 686.500000,278.000000 
"/>
<path fill="none" opacity="1.000000" stroke="#FFFFFF" stroke-linecap="round" stroke-linejoin="round" stroke-width="13.000000"
	d="
M242.000000,284.500000 
	C252.229828,283.249146 256.604950,274.155457 251.584045,265.451508 
	C248.182587,259.554962 242.714493,255.889542 237.902481,251.609650 
	C229.587509,244.214203 220.793594,237.334839 211.963226,230.547852 
	C203.636047,224.147614 196.500061,227.062164 192.478714,231.982605 
	C188.092957,237.348907 188.440338,243.889740 193.493927,249.005997 
	C204.824997,260.477570 217.635849,270.237518 230.090424,280.389069 
	C233.167694,282.897308 237.093948,284.813232 241.500000,284.500000 
"/>
<path fill="none" opacity="1.000000" stroke="#FFFFFF" stroke-linecap="round" stroke-linejoin="round" stroke-width="7.000000"
	d="
M427.000000,388.500000 
	C427.957031,381.697083 428.339752,374.834961 427.912354,368.005493 
	C427.563385,362.429260 424.353882,360.063843 417.999847,360.020721 
	C407.000366,359.946075 396.000000,360.000000 385.000000,360.000000 
	C377.365692,360.000000 375.237671,361.876556 376.120697,369.485992 
	C376.868103,375.926758 375.629791,382.165710 375.499603,388.194366 
	C367.594482,393.065216 358.892273,391.116577 350.495728,391.338226 
	C349.131561,391.374237 347.486542,391.031647 346.000305,391.042328 
	C340.098022,391.084686 339.005707,392.235870 339.000702,398.000000 
	C338.997101,402.166656 339.062012,406.334473 338.986389,410.499756 
	C338.852203,417.889008 336.889252,419.909973 329.499786,419.977325 
	C319.500610,420.068512 309.500000,419.991791 299.500000,420.003510 
	C294.574860,420.009308 293.207672,421.126373 293.044220,426.001495 
	C292.854462,431.661774 293.010773,437.333374 292.996338,443.000000 
	C292.986053,447.046844 294.949768,448.587860 299.000366,448.565063 
	C307.499146,448.517242 316.008667,448.655212 324.496674,449.068481 
	C329.393890,449.306976 334.169708,450.884430 335.908508,456.030914 
	C338.507416,463.722900 343.978394,469.102295 349.523041,474.476227 
	C354.516571,479.315918 360.951965,482.664612 364.500000,489.000000 
"/>
<path fill="none" opacity="1.000000" stroke="#FFFFFF" stroke-linecap="round" stroke-linejoin="round" stroke-width="6.000000"
	d="
M479.500000,790.500000 
	C472.538971,795.542419 464.873627,795.443420 457.010742,793.457458 
	C455.492981,793.074158 454.302673,792.064575 452.471222,792.939819 
	C447.881378,795.133362 442.879944,794.491882 438.000000,794.493408 
	C400.000000,794.505310 362.000000,794.507568 324.000031,794.478699 
	C321.999878,794.477173 319.882599,794.531738 318.021423,793.933411 
	C311.734711,791.912231 305.706787,795.070007 299.494934,794.561829 
	C294.945648,794.189575 290.525391,793.837280 287.000000,790.500000 
"/>
<path fill="none" opacity="1.000000" stroke="#FFFFFF" stroke-linecap="round" stroke-linejoin="round" stroke-width="6.000000"
	d="
M466.000000,452.500000 
	C462.730103,449.546844 458.811707,448.493286 454.500000,448.494446 
	C418.166656,448.504211 381.833282,448.526642 345.500092,448.458252 
	C341.921753,448.451508 339.013916,449.583374 336.500000,452.000000 
"/>
<path fill="none" opacity="1.000000" stroke="#FFFFFF" stroke-linecap="round" stroke-linejoin="round" stroke-width="6.000000"
	d="
M338.000000,418.000000 
	C341.366516,420.154053 345.053162,420.563293 349.000153,420.552277 
	C381.999878,420.460266 415.000000,420.498047 448.000000,420.502258 
	C452.601257,420.502838 457.171295,420.397949 461.513855,418.532257 
	C462.418488,418.143616 463.642334,417.764526 464.478577,418.060516 
	C476.352051,422.263275 488.515289,418.459778 500.506195,419.422791 
	C506.698181,419.920074 507.994537,420.822235 507.999146,427.000000 
	C508.003235,432.500000 507.894897,438.002686 508.035309,443.499084 
	C508.136292,447.452789 506.452179,449.108490 502.499329,449.037628 
	C495.168335,448.906189 487.833344,449.000000 480.500000,449.000000 
	C479.500000,449.000000 478.445160,448.790314 477.509186,449.035065 
	C472.615051,450.314911 467.668518,450.439209 465.260559,456.910889 
	C461.694305,466.495483 453.951263,473.205658 446.061310,479.575928 
	C442.326508,482.591370 437.748444,484.990601 436.000000,490.000000 
"/>
<path fill="none" opacity="1.000000" stroke="#FFFFFF" stroke-linecap="round" stroke-linejoin="round" stroke-width="6.000000"
	d="
M825.500000,791.000000 
	C823.379089,781.752014 816.313782,775.670349 810.957397,768.531982 
	C802.114563,756.747375 793.025146,745.147095 783.990906,733.507080 
	C778.308533,726.185730 771.972961,719.373108 766.965027,711.522278 
	C766.343384,710.547791 765.758850,709.693237 765.445679,708.514465 
	C764.165894,703.698425 760.332825,702.097534 756.009216,702.582458 
	C738.051025,704.596741 720.003784,704.447693 701.996704,704.852417 
	C691.522583,705.087708 681.008850,705.749756 670.477966,704.144653 
	C662.422180,702.916748 654.166992,702.722229 645.999756,702.713013 
	C644.165405,702.710938 640.968445,702.617676 639.933044,705.979370 
	C637.851685,712.737000 633.181091,718.026550 628.954651,723.464783 
	C615.410095,740.893005 601.394104,757.962830 588.178223,775.633240 
	C584.555237,780.477417 579.709412,785.064697 579.000000,791.750000 
"/>
<path fill="none" opacity="1.000000" stroke="#FFFFFF" stroke-linecap="round" stroke-linejoin="round" stroke-width="5.000000"
	d="
M793.000000,370.500000 
	C794.822449,372.688385 797.108459,373.911469 799.999268,374.020203 
	C801.170532,374.064270 802.577209,373.967987 803.461182,374.558167 
	C810.206787,379.061829 818.328552,380.356445 825.332581,383.836914 
	C832.061523,387.180664 839.805054,386.748901 846.007629,390.988831 
	C846.617310,391.405609 847.322388,391.930817 848.001709,391.958893 
	C854.325806,392.220581 860.168945,393.934570 866.093201,396.262787 
	C870.104675,397.839264 875.001404,397.149017 879.499634,397.504333 
	C885.630371,397.988586 891.561462,399.397766 897.531067,400.874329 
	C903.315796,402.305115 908.735107,399.775116 914.000000,397.500000 
"/>
<path fill="none" opacity="1.000000" stroke="#FFFFFF" stroke-linecap="round" stroke-linejoin="round" stroke-width="13.000000"
	d="
M185.000000,276.250000 
	C182.021820,277.641632 179.248901,277.393188 176.480621,275.528778 
	C173.647232,273.620483 170.418106,272.438110 167.001831,272.553986 
	C161.313690,272.746918 158.882324,277.196228 157.132034,281.553040 
	C155.622803,285.309814 155.716461,289.652313 158.576996,292.932861 
	C161.039124,295.756531 163.889069,298.443390 167.048996,300.421753 
	C179.434387,308.175842 190.943649,317.237152 203.923553,324.143677 
	C212.928177,328.934967 221.141113,326.658783 222.562805,314.007050 
	C223.197891,308.355438 221.642014,304.238159 216.522446,301.458649 
	C213.565399,299.853180 210.682297,298.026123 208.036560,295.953339 
	C204.367188,293.078583 201.265976,293.432617 198.527725,297.021149 
	C197.165070,298.806946 195.647873,299.541534 193.500000,298.750000 
"/>
<path fill="none" opacity="1.000000" stroke="#FFFFFF" stroke-linecap="round" stroke-linejoin="round" stroke-width="6.000000"
	d="
M814.500000,696.000000 
	C815.032227,693.125549 815.388184,690.385376 814.063538,687.471130 
	C811.070312,680.885925 809.435730,673.744141 807.385864,666.884705 
	C805.613220,660.953247 802.422546,655.361572 801.942932,649.004333 
	C801.827576,647.475281 801.424194,645.571411 800.421631,644.579163 
	C797.222412,641.412964 797.145935,637.534485 796.931580,633.503662 
	C796.824097,631.482788 796.056274,629.483948 795.490356,627.502747 
	C793.012817,618.829651 790.488831,610.169861 788.002686,601.499207 
	C784.658386,589.835693 781.995239,577.915894 777.711182,566.609436 
	C775.674805,561.235107 774.462830,556.106079 773.919861,550.507751 
	C772.985107,540.869080 769.450256,531.803101 766.980713,522.505127 
	C764.728638,514.025879 762.854736,505.452179 760.686401,496.952454 
	C758.747620,489.352692 755.424133,482.085175 755.153015,474.003265 
	C754.941895,467.707977 750.752380,462.071594 752.171814,455.508087 
	C730.101440,459.438843 708.475159,456.330902 687.008118,457.633636 
	C676.461365,458.273651 665.941101,458.072937 655.529846,457.159912 
	C651.525269,456.808685 647.180176,455.446289 643.008423,454.464233 
	C638.038574,453.294373 633.014771,453.370972 628.001343,453.539978 
	C621.571228,453.756744 616.000183,450.653137 610.027954,449.139771 
	C608.314514,448.705597 606.689819,448.550201 604.999756,448.511200 
	C601.531677,448.431091 598.537292,447.891541 595.329529,445.756073 
	C592.289001,443.731903 587.864136,443.571503 583.986450,443.115387 
	C582.168945,442.901581 581.060425,442.212463 580.000000,441.000000 
"/>
<path fill="none" opacity="1.000000" stroke="#FFFFFF" stroke-linecap="round" stroke-linejoin="round" stroke-width="7.000000"
	d="
M797.000000,640.500000 
	C792.491821,640.446472 788.053162,642.431152 783.504272,640.986572 
	C782.527954,640.676575 781.892883,640.831482 780.962036,641.442078 
	C775.615967,644.948303 769.543579,644.716064 763.499756,644.506775 
	C762.168030,644.460632 760.501953,643.980347 759.554077,644.584778 
	C753.634460,648.359497 747.298828,646.519043 741.001892,646.619568 
	C723.000000,646.906799 705.019104,648.401672 687.001221,647.950745 
	C678.494019,647.737854 670.004150,646.779602 661.497742,646.618225 
	C658.478821,646.560913 654.692993,645.847351 652.978088,649.990906 
	C649.188293,659.147400 642.046631,666.038940 636.419861,673.942932 
	C630.814758,681.816589 623.881287,688.720154 619.433777,697.466309 
	C618.556702,699.191040 616.422852,699.771057 614.506287,699.460938 
	C608.358643,698.466309 601.972717,699.268738 596.000000,697.000000 
"/>
<path fill="none" opacity="1.000000" stroke="#FFFFFF" stroke-linecap="round" stroke-linejoin="round" stroke-width="6.000000"
	d="
M649.000000,456.000000 
	C647.833374,463.666656 646.524597,471.315125 645.538635,479.004944 
	C644.480103,487.261139 642.609192,495.258148 639.585388,503.033203 
	C638.697083,505.317383 638.594849,507.995605 638.548645,510.500885 
	C638.446777,516.029114 637.344055,521.320740 635.506104,526.502197 
	C633.097229,533.293152 634.058350,540.733948 631.498718,547.499512 
	C630.048950,551.331543 629.930176,555.036682 632.754639,558.381653 
	C626.713135,566.571045 624.522217,575.894958 623.612366,585.510620 
	C623.251587,589.324097 621.039673,592.288879 620.353577,595.972717 
	C618.074097,608.211548 615.168335,620.333679 612.484436,632.496582 
	C612.441650,632.690552 612.000488,632.862366 612.023804,632.995850 
	C613.160095,639.499695 609.267151,644.476440 607.100891,650.039307 
	C605.023254,655.374451 603.677917,661.071655 602.298584,666.574829 
	C600.111267,675.301636 595.804626,683.589539 595.289124,692.516724 
	C594.965210,698.127502 591.675720,701.853699 589.879211,706.452820 
	C587.227234,713.242126 585.233276,720.281006 582.365540,726.942139 
	C579.834778,732.820496 577.781250,738.899841 574.669373,744.592590 
	C572.195496,749.118164 570.726501,754.249939 568.643494,759.062134 
	C566.201843,764.703064 563.277710,770.051941 560.578796,775.538757 
	C558.044373,780.691223 556.166687,786.166687 554.000000,791.500000 
"/>
<path fill="none" opacity="1.000000" stroke="#FFFFFF" stroke-linecap="round" stroke-linejoin="round" stroke-width="6.000000"
	d="
M763.500000,704.000000 
	C766.673706,701.857910 770.035645,700.903442 773.996094,700.818726 
	C777.146912,700.751221 780.492798,700.669373 783.603516,698.660278 
	C786.052795,697.078552 789.054443,699.562866 791.996216,699.641479 
	C799.465881,699.840881 806.423157,697.718323 813.904541,695.901672 
	C817.054749,699.089844 818.906006,702.965027 820.907227,707.312561 
	C823.734497,713.454590 823.866760,720.679810 828.480164,726.017151 
	C828.798828,726.385742 828.965881,726.996277 828.980042,727.500549 
	C829.174377,734.412659 833.036133,740.353638 835.544189,746.269287 
	C837.804077,751.599670 838.509277,757.699707 842.309509,762.646362 
	C844.935364,766.064209 845.515320,770.951843 847.213501,775.116821 
	C849.289185,780.207764 852.298645,785.208740 852.500000,791.000000 
"/>
<path fill="none" opacity="1.000000" stroke="#FFFFFF" stroke-linecap="round" stroke-linejoin="round" stroke-width="14.000000"
	d="
M1025.000000,527.000000 
	C1025.000000,529.000000 1025.000000,531.000000 1025.000000,533.000000 
	C1025.000000,542.672607 1029.252197,547.500732 1039.004761,548.450623 
	C1043.362427,548.875000 1047.766968,548.641968 1051.998047,547.244141 
	C1060.735962,544.357483 1064.869751,533.629089 1060.538818,525.479370 
	C1059.290405,523.130066 1057.355591,521.716431 1055.015381,522.094910 
	C1048.202393,523.196838 1041.264771,521.571838 1034.484985,523.445496 
	C1028.780640,525.021912 1023.131104,525.631714 1016.956238,524.842041 
	C1011.356689,524.125977 1005.394470,526.512085 999.500488,526.451782 
	C995.810120,526.414124 992.254272,528.760559 988.500000,527.000000 
"/>
<path fill="none" opacity="1.000000" stroke="#FFFFFF" stroke-linecap="round" stroke-linejoin="round" stroke-width="13.000000"
	d="
M664.500000,78.000000 
	C664.333313,75.333336 663.742004,72.611618 664.079224,70.010269 
	C665.112305,62.039886 660.733215,57.047962 652.486694,55.574501 
	C646.268921,54.463520 639.669495,60.272907 638.465271,66.993782 
	C637.116638,74.520897 635.073120,81.945648 634.109497,89.513947 
	C632.940491,98.695839 630.318848,107.676186 630.260132,117.000061 
	C630.217712,123.729851 634.174927,128.867462 641.012878,130.444061 
	C646.158997,131.630585 651.669617,128.095032 654.559631,123.034050 
	C656.240417,120.090714 656.068237,116.693298 657.500000,113.750000 
"/>
<path fill="none" opacity="1.000000" stroke="#FFFFFF" stroke-linecap="round" stroke-linejoin="round" stroke-width="14.000000"
	d="
M117.000000,492.500000 
	C117.333336,490.000000 117.229485,487.339111 118.079521,485.029266 
	C120.979462,477.149048 115.452354,473.532471 110.434685,470.095337 
	C104.518791,466.042999 97.813461,464.850952 91.021271,468.045227 
	C86.054909,470.380890 81.875931,479.609009 83.004684,484.999023 
	C83.682594,488.236145 85.967407,489.906250 89.004623,490.202576 
	C98.338623,491.113342 107.260498,496.085999 117.021751,493.070404 
	C117.688477,492.864441 118.728729,493.562469 119.490440,494.016052 
	C127.524132,498.799957 136.563736,499.265320 145.504379,499.942078 
	C150.346390,500.308624 152.274033,498.752808 153.463699,493.990936 
	C154.908676,488.207123 155.535660,482.356293 150.973526,477.524994 
	C145.287247,471.503235 137.948441,470.984070 130.531754,472.642029 
	C126.684753,473.502014 123.166664,475.833344 119.500000,477.500000 
"/>
<path fill="none" opacity="1.000000" stroke="#FFFFFF" stroke-linecap="round" stroke-linejoin="round" stroke-width="15.000000"
	d="
M1069.500000,580.000000 
	C1047.841064,579.161621 1026.170654,579.103699 1004.502502,578.813232 
	C999.403259,578.744873 993.960876,579.656250 989.000000,577.250000 
"/>
<path fill="none" opacity="1.000000" stroke="#FFFFFF" stroke-linecap="round" stroke-linejoin="round" stroke-width="6.000000"
	d="
M265.000000,683.500000 
	C264.931763,692.168579 265.424622,700.852478 264.471252,709.496826 
	C264.159912,712.319580 263.058441,714.229309 259.497101,714.168152 
	C257.928009,714.141113 256.168549,714.404785 254.499252,714.484314 
	C238.000488,715.270752 221.492538,714.683655 205.001648,714.403259 
	C175.829102,713.907227 146.661835,714.888733 117.502022,714.383484 
	C102.665642,714.126526 87.833618,714.121643 72.999817,714.028992 
	C69.001015,714.004028 64.998634,714.501038 61.000256,714.468506 
	C48.999802,714.370850 36.989048,714.955322 25.000000,714.000000 
"/>
<path fill="none" opacity="1.000000" stroke="#FFFFFF" stroke-linecap="round" stroke-linejoin="round" stroke-width="6.000000"
	d="
M854.500000,683.500000 
	C853.407410,691.647766 854.055908,699.837036 854.101562,707.999451 
	C854.122864,711.804749 857.328247,714.438110 861.500122,714.447083 
	C874.500488,714.475098 887.506165,714.468933 900.503540,714.330505 
	C910.964661,714.219116 921.486145,713.877869 932.007812,714.310059 
	C949.145569,715.013916 966.333618,714.559692 983.499878,714.478516 
	C994.500427,714.426514 1005.514160,713.730896 1016.497192,714.087158 
	C1042.499878,714.930847 1068.500854,714.203674 1094.500000,714.500000 
"/>
<path fill="none" opacity="1.000000" stroke="#FFFFFF" stroke-linecap="round" stroke-linejoin="round" stroke-width="6.000000"
	d="
M1094.000000,681.000000 
	C1088.166626,680.833313 1082.297485,680.172302 1076.506836,680.593262 
	C1059.510620,681.828735 1042.493774,681.787415 1025.502319,681.398499 
	C1000.326660,680.822327 975.148071,681.714417 950.005432,681.223328 
	C926.313538,680.760620 902.667908,682.164856 878.999268,681.526978 
	C871.616577,681.328064 868.459473,678.676208 868.562012,671.500916 
	C868.662231,664.499329 867.579163,657.424377 869.505859,650.255493 
	C868.564941,649.784241 867.532471,649.267151 866.500000,648.750000 
"/>
<path fill="none" opacity="1.000000" stroke="#FFFFFF" stroke-linecap="round" stroke-linejoin="round" stroke-width="14.000000"
	d="
M91.500000,550.750000 
	C85.000923,550.557800 78.741730,550.930847 74.996979,557.498291 
	C70.964272,564.570618 75.338257,574.187866 82.972069,575.646240 
	C89.630226,576.918274 96.313049,577.585083 103.004524,577.905518 
	C113.821037,578.423462 124.666931,578.476562 135.499924,578.456360 
	C144.742569,578.439148 151.195206,570.683350 148.438431,563.022156 
	C147.310730,559.888184 145.500000,557.000000 144.000000,554.000000 
"/>
<path fill="none" opacity="1.000000" stroke="#FFFFFF" stroke-linecap="round" stroke-linejoin="round" stroke-width="13.000000"
	d="
M848.500000,163.500000 
	C852.533264,164.491501 855.858704,164.325058 857.554688,159.519287 
	C859.991821,152.613693 859.636047,147.320618 856.557373,144.438721 
	C850.165100,138.454865 844.979675,137.525848 837.042969,143.556519 
	C834.122742,145.775467 832.077759,148.935074 829.969604,151.978928 
	C823.739197,160.974686 816.724731,169.382019 810.130127,178.098434 
	C806.683960,182.653442 803.022888,187.846176 803.613647,193.989075 
	C804.597290,204.217896 816.545715,208.812988 824.983521,202.478073 
	C826.103210,201.637466 827.301208,200.661697 827.941528,199.468658 
	C829.624939,196.332245 832.409729,195.819473 835.500000,195.750000 
"/>
<path fill="none" opacity="1.000000" stroke="#FFFFFF" stroke-linecap="round" stroke-linejoin="round" stroke-width="6.000000"
	d="
M881.500000,716.500000 
	C881.500000,724.500000 881.471985,732.500122 881.509644,740.499939 
	C881.535767,746.048584 882.936462,747.467163 888.500061,747.487732 
	C899.666565,747.528992 910.844788,747.194153 921.995789,747.612000 
	C928.951416,747.872620 935.935730,746.327576 942.472656,746.617126 
	C950.343567,746.965881 958.834290,745.301697 966.507874,748.983582 
	C967.114807,749.274780 967.968018,749.661499 968.480042,749.451355 
	C977.741211,745.649536 987.511536,747.975403 997.003052,747.030457 
	C1002.497253,746.483337 1008.190247,748.092712 1013.499756,745.500305 
	C1018.324951,747.432983 1019.795898,750.582092 1019.206665,756.022400 
	C1018.385925,763.600159 1019.000000,771.333313 1019.000000,779.000000 
"/>
<path fill="none" opacity="1.000000" stroke="#FFFFFF" stroke-linecap="round" stroke-linejoin="round" stroke-width="6.000000"
	d="
M667.500000,568.500000 
	C664.935364,576.598083 659.649048,583.123047 654.979858,589.986328 
	C646.216553,602.867249 637.536804,615.814575 628.376953,628.410522 
	C625.601013,632.227844 623.783752,636.292603 622.000000,640.500000 
"/>
<path fill="none" opacity="1.000000" stroke="#FFFFFF" stroke-linecap="round" stroke-linejoin="round" stroke-width="3.000000"
	d="
M972.500000,649.000000 
	C966.052368,648.453918 959.276367,649.332703 953.542603,645.437317 
	C951.104431,643.780945 949.097656,644.733276 947.571594,646.081055 
	C944.420288,648.864319 940.860352,649.050598 936.999878,649.035095 
	C917.833496,648.958130 898.666687,648.988403 879.500000,649.010986 
	C876.141418,649.014954 872.667725,648.010315 869.500000,650.000000 
"/>
<path fill="none" opacity="1.000000" stroke="#FFFFFF" stroke-linecap="round" stroke-linejoin="round" stroke-width="6.000000"
	d="
M633.000000,559.000000 
	C635.930298,558.989807 638.453735,559.170471 641.120605,561.352661 
	C646.191772,565.502258 652.941162,564.395020 658.989746,565.553650 
	C672.737000,568.187012 686.635376,567.565308 700.493652,568.149902 
	C708.888062,568.504028 717.168030,567.741150 725.500244,567.509888 
	C727.831787,567.445129 730.167358,567.534607 732.499817,567.491272 
	C735.449951,567.436523 737.532288,568.805664 738.469543,571.510559 
	C741.279358,579.620239 746.814636,586.056702 751.531799,592.978333 
	C758.744019,603.560913 765.965393,614.149170 773.586731,624.435730 
	C777.278442,629.418396 780.586365,634.412415 782.000000,640.500000 
"/>
<path fill="none" opacity="1.000000" stroke="#FFFFFF" stroke-linecap="round" stroke-linejoin="round" stroke-width="3.000000"
	d="
M186.500000,648.500000 
	C181.479019,648.037354 176.588333,649.408386 171.491989,649.175293 
	C159.517029,648.627686 147.498352,649.121155 135.500580,648.957458 
	C127.497520,648.848328 119.431717,647.560669 111.522934,648.259521 
	C105.826904,648.762939 100.088470,647.337402 94.500000,649.000000 
"/>
<path fill="none" opacity="1.000000" stroke="#FFFFFF" stroke-linecap="round" stroke-linejoin="round" stroke-width="7.000000"
	d="
M608.000000,931.500000 
	C604.261902,923.671997 596.849487,920.726379 589.475342,918.068420 
	C577.466370,913.739929 565.544250,914.962219 554.022095,920.050049 
	C548.790894,922.360046 544.699097,926.233826 541.500000,931.000000 
"/>
<path fill="none" opacity="1.000000" stroke="#FFFFFF" stroke-linecap="round" stroke-linejoin="round" stroke-width="14.000000"
	d="
M550.000000,54.000008 
	C550.166626,54.333340 550.473083,54.663799 550.479980,55.000420 
	C550.836060,72.333282 551.151245,89.666985 551.509644,106.999802 
	C551.613098,112.001106 551.833313,117.000000 552.000000,122.000000 
"/>
<path fill="none" opacity="1.000000" stroke="#FFFFFF" stroke-linecap="round" stroke-linejoin="round" stroke-width="5.000000"
	d="
M828.500000,649.000000 
	C823.293457,648.066833 821.117249,649.578796 821.027954,654.500488 
	C820.913147,660.831726 820.911072,667.168335 821.027039,673.499512 
	C821.126953,678.953186 822.814026,680.698669 828.503357,681.475342 
	C830.816345,681.791077 833.164307,681.918945 835.500427,681.984131 
	C842.999268,682.193359 850.499329,682.403198 858.000244,682.472778 
	C862.257385,682.512207 865.956360,680.666199 869.500000,678.500000 
"/>
<path fill="none" opacity="1.000000" stroke="#FFFFFF" stroke-linecap="round" stroke-linejoin="round" stroke-width="6.000000"
	d="
M646.000000,484.500000 
	C657.327148,487.193024 668.992859,488.441498 680.010132,492.472229 
	C680.598145,492.687347 681.372498,492.645599 681.994202,492.478363 
	C693.222961,489.458069 704.670532,491.595459 716.002441,491.050751 
	C720.150818,490.851379 722.473572,492.775787 724.755127,496.857361 
	C729.945923,506.143066 736.415588,514.725525 742.522339,523.484436 
	C749.425354,533.385376 756.606995,543.093628 763.413330,553.059204 
	C764.842773,555.152039 765.166626,558.000000 766.000000,560.500000 
"/>
<path fill="none" opacity="1.000000" stroke="#FFFFFF" stroke-linecap="round" stroke-linejoin="round" stroke-width="7.000000"
	d="
M844.500000,369.000000 
	C842.666687,369.000000 840.826660,369.098175 839.001770,368.974243 
	C836.895142,368.831207 834.255676,367.862488 834.655334,365.779816 
	C836.214905,357.651611 829.876221,355.238647 824.877808,353.318085 
	C820.673401,351.702606 817.512085,349.480164 814.482788,346.517609 
	C812.864014,344.934479 811.708862,343.208923 810.937561,341.022003 
	C809.383545,336.615479 804.722046,335.526428 801.423584,333.104095 
	C789.278076,324.184723 775.510071,318.232574 761.437500,313.173798 
	C757.179749,311.643250 752.622009,310.185699 747.402710,311.654083 
	C744.617981,312.437469 740.839478,309.648743 737.498840,308.503479 
	C728.678650,305.479828 720.169312,301.251770 710.500000,301.500000 
"/>
<path fill="none" opacity="1.000000" stroke="#FFFFFF" stroke-linecap="round" stroke-linejoin="round" stroke-width="13.000000"
	d="
M454.499969,62.000004 
	C455.666656,68.000000 456.561066,74.068672 458.053741,79.986435 
	C461.751373,94.645744 464.023254,109.659660 468.995148,124.001686 
	C471.771149,132.009262 474.234497,133.364716 482.503479,131.515549 
	C486.775970,130.560089 491.044312,129.242783 495.500000,130.500000 
"/>
<path fill="none" opacity="1.000000" stroke="#FFFFFF" stroke-linecap="round" stroke-linejoin="round" stroke-width="13.000000"
	d="
M365.500000,137.999985 
	C368.833313,136.166641 372.203033,134.395920 375.491699,132.485672 
	C380.764679,129.422791 382.370117,125.471222 381.007629,119.498253 
	C379.330750,112.146980 377.058502,105.074348 370.475616,100.535362 
	C365.264618,96.942307 354.302795,98.989311 350.497101,103.997810 
	C349.049438,105.903053 349.307770,107.844742 349.962646,110.011292 
	C352.881470,119.667946 356.698944,128.872528 363.568268,136.438019 
	C365.014679,138.031082 365.326233,139.527603 365.577606,141.490067 
	C366.234772,146.621567 367.657990,151.520645 370.438721,156.037720 
	C372.579468,159.515137 374.405548,163.238937 375.906372,167.036987 
	C376.746368,169.162689 378.004028,170.206818 380.000000,170.750000 
"/>
<path fill="none" opacity="1.000000" stroke="#FFFFFF" stroke-linecap="round" stroke-linejoin="round" stroke-width="6.000000"
	d="
M725.500000,384.000000 
	C720.399597,387.917236 714.410034,387.958435 708.505615,387.436493 
	C695.582153,386.294006 682.812500,387.820618 669.994263,388.934235 
	C665.715576,389.306000 662.100708,390.198486 659.448608,393.963776 
	C656.971863,397.479919 652.995850,395.735107 650.028442,395.304108 
	C643.742371,394.391113 638.146973,394.187103 633.980774,399.986206 
	C632.624146,401.874664 630.164734,400.850128 628.551697,401.609833 
	C620.935730,405.196838 613.336243,408.881805 606.042725,413.074371 
	C597.535400,417.964722 589.157715,423.407959 582.206604,430.211090 
	C576.275024,436.016388 568.910400,441.063660 565.697510,449.079163 
	C564.169556,452.891144 561.913391,454.376343 558.500000,455.250000 
"/>
<path fill="none" opacity="1.000000" stroke="#FFFFFF" stroke-linecap="round" stroke-linejoin="round" stroke-width="6.000000"
	d="
M681.000000,493.500000 
	C678.344360,500.973297 673.308960,507.026581 668.973206,513.481995 
	C663.148499,522.154358 657.212708,530.755737 651.338013,539.389771 
	C647.149475,545.545654 643.005188,551.724243 639.000000,558.000000 
"/>
<path fill="none" opacity="1.000000" stroke="#FFFFFF" stroke-linecap="round" stroke-linejoin="round" stroke-width="4.000000"
	d="
M1076.500000,649.500000 
	C1074.639282,648.331055 1072.562012,648.493835 1070.500000,648.494934 
	C1053.833374,648.504089 1037.138794,647.958618 1020.516174,648.814270 
	C1015.201233,649.087891 1009.710815,647.205994 1004.500000,649.500000 
"/>
<path fill="none" opacity="1.000000" stroke="#FFFFFF" stroke-linecap="round" stroke-linejoin="round" stroke-width="5.000000"
	d="
M897.000000,363.000000 
	C891.670532,365.376099 886.183899,365.199707 880.489014,364.605530 
	C874.537781,363.984558 868.497925,364.737976 862.492493,364.067169 
	C859.338745,363.714935 856.692200,363.121552 853.856506,361.213196 
	C850.724670,359.105530 846.337585,359.620392 842.512451,360.099243 
	C840.112427,360.399689 837.833313,361.666656 835.500000,362.500000 
"/>
<path fill="none" opacity="1.000000" stroke="#FFFFFF" stroke-linecap="round" stroke-linejoin="round" stroke-width="13.000000"
	d="
M813.250000,115.000000 
	C813.793396,117.051529 813.149719,118.633324 812.099915,120.554604 
	C804.345032,134.746750 795.437256,148.228989 787.018372,162.011215 
	C783.904724,167.108475 781.074524,172.378647 777.972839,177.483536 
	C776.019958,180.697784 779.285706,183.447098 778.500000,186.500000 
"/>
<path fill="none" opacity="1.000000" stroke="#FFFFFF" stroke-linecap="round" stroke-linejoin="round" stroke-width="5.000000"
	d="
M425.500000,389.250000 
	C434.122101,390.495422 442.800385,390.814850 451.493805,391.157440 
	C453.627167,391.241547 455.835846,391.340576 458.001953,391.466278 
	C462.661438,391.736694 464.903778,393.502991 464.940155,398.000488 
	C464.992645,404.498230 465.453369,411.020172 464.500000,417.500000 
"/>
<path fill="none" opacity="1.000000" stroke="#FFFFFF" stroke-linecap="round" stroke-linejoin="round" stroke-width="9.000000"
	d="
M670.000000,353.500000 
	C674.084290,355.520538 678.688293,356.138062 682.585144,358.878906 
	C685.529358,360.949677 688.576111,362.766907 691.018860,365.483032 
	C694.195068,369.014679 698.223816,370.488068 702.980286,371.143097 
	C708.192932,371.860901 713.543396,372.386475 718.503784,374.490997 
	C720.572083,375.368530 722.761169,375.635529 725.000000,375.500000 
"/>
<path fill="none" opacity="1.000000" stroke="#FFFFFF" stroke-linecap="round" stroke-linejoin="round" stroke-width="13.000000"
	d="
M968.000000,265.000000 
	C955.166687,273.666687 942.239929,282.199615 929.544312,291.063446 
	C924.199036,294.795380 918.300842,297.943054 914.044006,303.036774 
	C910.826843,306.886444 906.983154,303.882141 903.500000,304.500000 
"/>
<path fill="none" opacity="1.000000" stroke="#FFFFFF" stroke-linecap="round" stroke-linejoin="round" stroke-width="13.000000"
	d="
M947.500000,238.000000 
	C937.333313,246.333328 927.120422,254.611099 917.014771,263.017761 
	C909.107605,269.595642 901.333313,276.333344 893.500000,283.000000 
"/>
<path fill="none" opacity="1.000000" stroke="#FFFFFF" stroke-linecap="round" stroke-linejoin="round" stroke-width="5.000000"
	d="
M737.000000,392.000000 
	C736.573242,395.833344 736.178833,399.631439 736.909180,403.517059 
	C737.207642,405.104797 737.546997,406.042511 738.923767,407.099304 
	C741.039978,408.723633 740.900940,411.556824 740.957703,414.000977 
	C741.069214,418.808441 741.244995,423.558929 744.511108,427.490784 
	C746.580750,429.982300 745.443909,432.865448 745.404358,435.498566 
	C745.311584,441.670502 747.246033,447.161987 749.981262,452.509583 
	C750.286072,453.105591 750.333374,453.833313 750.500000,454.500000 
"/>
<path fill="none" opacity="1.000000" stroke="#FFFFFF" stroke-linecap="round" stroke-linejoin="round" stroke-width="14.000000"
	d="
M611.000000,52.000000 
	C605.333313,50.925358 599.625671,51.289898 594.014099,52.097847 
	C590.127014,52.657497 589.397339,56.708897 589.199463,59.514069 
	C588.821411,64.874771 586.485718,70.586830 587.798584,75.418877 
	C591.249084,88.118492 584.519165,99.996437 586.246582,112.534912 
	C587.229614,119.670189 588.137024,122.474915 595.505798,122.899147 
	C599.040222,123.102631 602.521851,123.437531 606.000000,124.000000 
"/>
<path fill="none" opacity="1.000000" stroke="#FFFFFF" stroke-linecap="round" stroke-linejoin="round" stroke-width="6.000000"
	d="
M822.500000,438.000000 
	C813.404053,444.610168 802.757751,446.549194 792.026489,448.636047 
	C784.907898,450.020386 777.670105,451.687134 771.500000,456.000000 
"/>
<path fill="none" opacity="1.000000" stroke="#FFFFFF" stroke-linecap="round" stroke-linejoin="round" stroke-width="13.000000"
	d="
M270.500000,160.500000 
	C281.144073,172.611725 291.025726,185.343124 301.012024,197.990509 
	C303.431183,201.054321 305.833954,204.160599 308.541534,206.959839 
	C312.016022,210.551956 314.826233,214.162277 312.500000,219.500000 
"/>
<path fill="none" opacity="1.000000" stroke="#FFFFFF" stroke-linecap="round" stroke-linejoin="round" stroke-width="14.000000"
	d="
M1057.250000,493.000000 
	C1058.555542,485.754852 1055.419189,479.453644 1052.825317,472.794678 
	C1043.356079,471.583649 1034.338379,474.089783 1025.515015,477.538544 
	C1022.539062,478.701782 1019.917847,480.467194 1016.426025,478.641479 
	C1015.236206,478.019409 1013.208191,478.499969 1011.477783,478.904999 
	C1003.171753,480.849213 994.314758,480.342163 986.509949,484.518555 
	C984.873474,485.394226 983.799255,484.181793 982.500000,483.750000 
"/>
<path fill="none" opacity="1.000000" stroke="#FFFFFF" stroke-linecap="round" stroke-linejoin="round" stroke-width="6.000000"
	d="
M751.000000,648.500000 
	C752.959656,655.138000 757.852417,659.798035 761.956604,665.034058 
	C768.782532,673.742493 775.356384,682.649414 781.981689,691.513733 
	C783.398987,693.410095 784.009277,695.701538 784.500000,698.000000 
"/>
<path fill="none" opacity="1.000000" stroke="#FFFFFF" stroke-linecap="round" stroke-linejoin="round" stroke-width="12.000000"
	d="
M96.500000,401.500000 
	C102.085289,398.852234 107.556442,401.379578 112.981491,402.133240 
	C116.825905,402.667328 120.441338,404.580750 124.500076,404.576813 
	C125.666252,404.575714 127.402832,405.171417 127.910645,406.051544 
	C132.301254,413.661438 140.862335,414.616699 147.591843,418.333740 
	C152.454300,421.019562 158.349106,421.771729 163.442490,424.124512 
	C167.545105,426.019653 171.433167,425.468597 175.500000,425.000000 
"/>
<path fill="none" opacity="1.000000" stroke="#FFFFFF" stroke-linecap="round" stroke-linejoin="round" stroke-width="12.000000"
	d="
M783.500000,94.500000 
	C785.832336,100.311638 782.696289,105.074730 780.489929,109.995483 
	C777.865845,115.847923 775.200256,121.682320 772.489197,127.494965 
	C770.367920,132.043137 767.940430,136.201096 763.042480,138.587204 
	C758.923584,140.593811 759.162109,145.280380 758.031311,149.009491 
	C756.729736,153.301926 755.738892,157.687820 754.477600,161.993454 
	C753.424500,165.588638 755.398987,168.973068 755.000000,172.500000 
"/>
<path fill="none" opacity="1.000000" stroke="#FFFFFF" stroke-linecap="round" stroke-linejoin="round" stroke-width="12.000000"
	d="
M241.500000,181.500000 
	C249.666672,192.833328 257.844116,204.158936 265.991302,215.506241 
	C267.700287,217.886490 269.152985,220.339706 269.054962,223.501709 
	C268.993378,225.486969 268.099304,227.912766 269.567902,229.434464 
	C273.495209,233.503677 276.868408,238.225708 282.019684,240.962952 
	C282.539551,241.239212 283.333344,241.000000 284.000000,241.000000 
"/>
<path fill="none" opacity="1.000000" stroke="#FFFFFF" stroke-linecap="round" stroke-linejoin="round" stroke-width="12.000000"
	d="
M220.500000,199.000000 
	C220.290817,200.667160 220.965851,201.550659 222.449081,202.573822 
	C232.878418,209.767975 243.232727,217.076065 253.469833,224.541351 
	C258.027802,227.865189 263.067291,228.942337 268.500000,229.000000 
"/>
<path fill="none" opacity="1.000000" stroke="#FFFFFF" stroke-linecap="round" stroke-linejoin="round" stroke-width="5.000000"
	d="
M1065.500000,749.500000 
	C1062.211548,746.752869 1058.232422,747.898682 1054.506714,747.445129 
	C1044.487183,746.225403 1034.499512,747.503967 1024.500488,747.568970 
	C1022.830566,747.579834 1021.166687,748.500000 1019.500000,749.000000 
"/>
<path fill="none" opacity="1.000000" stroke="#FFFFFF" stroke-linecap="round" stroke-linejoin="round" stroke-width="12.000000"
	d="
M111.000000,373.500000 
	C116.374084,373.598511 120.614693,376.978180 125.494995,378.515900 
	C133.004532,380.882050 140.302231,383.796692 147.526993,386.937927 
	C151.329834,388.591370 153.537796,391.360413 155.000000,395.000000 
"/>
<path fill="none" opacity="1.000000" stroke="#FFFFFF" stroke-linecap="round" stroke-linejoin="round" stroke-width="5.000000"
	d="
M792.000000,369.000000 
	C790.961975,368.212311 791.080139,366.440002 789.001038,366.414917 
	C784.664307,366.362671 780.329529,365.874969 776.001404,365.484619 
	C773.329102,365.243591 770.758057,365.440643 768.508484,367.012115 
	C763.239624,370.692657 757.116882,368.958313 751.487183,369.265045 
	C743.079224,369.723175 734.763428,369.696838 727.000000,373.500000 
"/>
<path fill="none" opacity="1.000000" stroke="#FFFFFF" stroke-linecap="round" stroke-linejoin="round" stroke-width="7.000000"
	d="
M188.000000,856.500000 
	C180.291336,855.867554 172.580856,855.102295 164.994263,857.481689 
	C164.036224,857.782166 162.686172,858.326599 162.049866,857.921692 
	C157.129074,854.790710 151.673584,855.888306 146.508255,856.157959 
	C142.122223,856.387024 137.991028,853.284668 134.077408,854.712219 
	C129.809021,856.269104 125.692490,855.869568 121.499115,855.958252 
	C114.335655,856.109802 107.164314,856.107910 100.001045,855.952026 
	C96.684059,855.879944 93.806129,856.506226 91.500000,859.000000 
"/>
<path fill="none" opacity="1.000000" stroke="#FFFFFF" stroke-linecap="round" stroke-linejoin="round" stroke-width="7.000000"
	d="
M954.500000,816.000000 
	C954.333313,806.833313 953.996094,797.665344 954.068115,788.500549 
	C954.107239,783.520508 955.756348,782.639771 960.475098,781.404846 
	C968.849854,779.213074 977.170532,781.706909 985.508423,781.120056 
	C987.116333,781.006836 988.775330,781.387024 990.514893,781.086243 
	C992.618713,780.722534 995.126648,780.325378 996.948853,781.117676 
	C1004.521423,784.410156 1011.456909,781.293457 1018.477173,779.414673 
	C1021.176270,778.692261 1022.982117,780.656189 1025.501587,780.624207 
	C1038.170776,780.463318 1050.864014,780.000793 1063.500000,781.500000 
"/>
<path fill="none" opacity="1.000000" stroke="#FFFFFF" stroke-linecap="round" stroke-linejoin="round" stroke-width="13.000000"
	d="
M1050.000000,440.750000 
	C1045.504272,437.875854 1041.619873,441.128967 1037.500488,442.002502 
	C1030.226562,443.545013 1023.174072,446.483948 1015.500610,445.495300 
	C1014.176208,445.324646 1012.999878,445.806366 1012.017334,446.523743 
	C1006.335266,450.672607 999.819763,452.228668 993.037659,453.676514 
	C986.541809,455.063232 980.400452,458.118835 973.500000,457.500000 
"/>
<path fill="none" opacity="1.000000" stroke="#FFFFFF" stroke-linecap="round" stroke-linejoin="round" stroke-width="13.000000"
	d="
M965.500000,410.000000 
	C974.491760,402.857513 983.651978,395.919647 992.007324,388.007721 
	C994.505798,385.641754 996.172607,382.773743 996.964172,379.491364 
	C998.154907,374.553436 996.807190,372.622192 990.995239,372.899811 
	C983.672241,373.249512 976.973938,375.170929 970.471558,378.443481 
	C965.279175,381.056763 959.833313,383.166656 954.500000,385.500000 
"/>
<path fill="none" opacity="1.000000" stroke="#FFFFFF" stroke-linecap="round" stroke-linejoin="round" stroke-width="12.000000"
	d="
M517.500000,47.500000 
	C517.865906,50.018887 516.602234,52.186161 516.089294,54.519634 
	C514.967529,59.622898 513.907349,64.809898 513.621399,70.006676 
	C513.342773,75.072411 511.268921,78.993515 507.977783,82.479027 
	C506.140198,84.425140 505.915527,86.285400 506.371185,89.021454 
	C508.416901,101.305542 510.000000,113.666672 511.750000,126.000000 
"/>
<path fill="none" opacity="1.000000" stroke="#FFFFFF" stroke-linecap="round" stroke-linejoin="round" stroke-width="8.000000"
	d="
M615.500000,322.500000 
	C609.885559,328.400146 602.382202,331.661865 595.921204,336.392426 
	C589.857910,340.831848 583.427673,344.710449 578.987000,350.990814 
	C578.584656,351.559875 577.987671,352.446625 577.501831,352.433228 
	C569.859863,352.222382 568.963623,358.860321 566.647278,363.572388 
	C564.885742,367.155914 562.845825,369.725525 559.000000,370.750000 
"/>
<path fill="none" opacity="1.000000" stroke="#FFFFFF" stroke-linecap="round" stroke-linejoin="round" stroke-width="7.000000"
	d="
M166.000000,817.000000 
	C166.000000,807.333313 165.972244,797.666565 166.018509,788.000061 
	C166.030869,785.421814 165.531052,783.943176 162.566757,782.823303 
	C157.528778,780.920166 152.718323,779.984009 147.495605,781.484680 
	C144.054138,782.473633 140.493652,782.060730 137.001389,781.954407 
	C129.603867,781.729187 122.096970,780.051880 115.035889,783.572021 
	C113.684196,784.245789 113.329651,783.183777 112.496246,783.018982 
	C106.226463,781.779236 100.166267,780.007385 93.481148,780.850525 
	C81.392418,782.375305 69.180801,782.365417 57.000000,781.500000 
"/>
<path fill="none" opacity="1.000000" stroke="#FFFFFF" stroke-linecap="round" stroke-linejoin="round" stroke-width="11.000000"
	d="
M750.000000,118.000000 
	C740.529053,122.063568 738.174866,131.243286 734.480225,139.491150 
	C732.225220,144.525238 729.775696,149.472153 727.437866,154.406769 
	C726.175598,154.196243 724.837830,153.973129 723.500000,153.750000 
"/>
<path fill="none" opacity="1.000000" stroke="#FFFFFF" stroke-linecap="round" stroke-linejoin="round" stroke-width="7.000000"
	d="
M963.500000,898.500000 
	C961.710815,894.487061 956.513123,892.583679 956.530396,887.500122 
	C956.543396,883.666260 956.629822,879.810852 957.050354,876.005554 
	C957.603149,871.002625 955.409607,866.025391 957.331299,860.936279 
	C957.863647,859.526550 958.205322,858.503418 959.510559,858.029114 
	C960.795349,857.562195 962.215027,856.918030 963.492249,857.066650 
	C972.562927,858.121826 981.334656,854.894653 990.521545,855.775146 
	C1000.760803,856.756470 1011.168030,856.094666 1021.499329,855.951294 
	C1025.390381,855.897278 1029.005005,856.232483 1032.000000,859.000000 
"/>
<path fill="none" opacity="1.000000" stroke="#FFFFFF" stroke-linecap="round" stroke-linejoin="round" stroke-width="5.000000"
	d="
M604.000000,369.500000 
	C610.656677,374.949921 618.489441,378.600891 625.479309,383.529388 
	C630.544739,387.101013 637.503235,388.101624 640.500000,394.500000 
"/>
<path fill="none" opacity="1.000000" stroke="#FFFFFF" stroke-linecap="round" stroke-linejoin="round" stroke-width="11.000000"
	d="
M907.500000,189.000000 
	C906.645508,196.124802 900.762878,200.299133 897.361267,205.915970 
	C894.867920,210.032944 891.841370,213.663162 886.059082,214.800430 
	C881.146790,215.766602 878.213989,221.028259 874.496338,224.496048 
	C869.666748,229.000885 865.926880,234.639984 860.461365,238.444504 
	C857.001770,240.852737 855.289307,243.429779 857.500000,247.500000 
"/>
<path fill="none" opacity="1.000000" stroke="#FFFFFF" stroke-linecap="round" stroke-linejoin="round" stroke-width="6.000000"
	d="
M190.500000,749.500000 
	C190.500000,756.833313 190.518356,764.166748 190.490524,771.499939 
	C190.480087,774.247681 190.943298,777.067749 189.044403,779.534180 
	C188.579544,780.137939 188.320740,781.280823 188.552383,781.982727 
	C191.583679,791.167542 189.031723,800.719971 190.467224,810.005066 
	C190.833359,812.373291 190.291672,814.733276 189.497116,816.998962 
	C189.212204,817.811401 188.583145,818.226440 188.878006,819.527649 
	C190.927155,828.570068 190.587219,837.879944 190.224121,846.989014 
	C189.956146,853.711670 189.745667,860.294434 190.378128,867.011475 
	C190.953674,873.123962 190.531784,879.333618 190.477173,885.499817 
	C190.463867,887.001160 190.617432,888.776184 189.903748,889.941040 
	C188.525192,892.191101 188.821259,894.115112 189.409882,896.522034 
	C191.116333,903.499878 190.885712,910.431946 187.500000,917.000000 
"/>
<path fill="none" opacity="1.000000" stroke="#FFFFFF" stroke-linecap="round" stroke-linejoin="round" stroke-width="6.000000"
	d="
M954.000000,784.000000 
	C948.370728,780.775635 942.412292,780.208984 935.985046,780.850098 
	C931.692932,781.278259 929.211914,783.311707 928.863831,787.010681 
	C927.837646,797.914917 926.848145,808.902161 931.000000,819.500000 
"/>
<path fill="none" opacity="1.000000" stroke="#FFFFFF" stroke-linecap="round" stroke-linejoin="round" stroke-width="6.000000"
	d="
M957.000000,858.500000 
	C948.986633,853.833374 940.347351,856.109863 932.020325,856.760010 
	C929.372925,856.966675 928.631653,861.162048 928.563171,864.001526 
	C928.378479,871.663757 928.539307,879.333618 928.479492,886.999817 
	C928.457458,889.821838 930.354065,891.825500 931.155396,893.991821 
	C928.194397,901.942322 927.425720,909.559204 932.000000,917.000000 
"/>
<path fill="none" opacity="1.000000" stroke="#FFFFFF" stroke-linecap="round" stroke-linejoin="round" stroke-width="6.000000"
	d="
M1035.500000,822.000000 
	C1035.807739,834.331421 1034.867798,846.679688 1036.000000,859.000000 
"/>
<path fill="none" opacity="1.000000" stroke="#FFFFFF" stroke-linecap="round" stroke-linejoin="round" stroke-width="6.000000"
	d="
M1063.500000,818.500000 
	C1060.000000,818.333374 1056.453491,818.465027 1053.011230,817.927917 
	C1048.214478,817.179565 1043.712646,817.081360 1039.475708,819.964233 
	C1037.280762,821.457642 1035.018555,821.418396 1032.462891,820.070251 
	C1026.439331,816.892761 1019.825256,819.104431 1013.497498,818.527588 
	C1013.016663,818.483826 1012.416382,819.092407 1012.012268,818.962036 
	C1002.966553,816.042419 994.320251,819.666931 985.487671,820.337158 
	C982.424683,820.569519 979.520508,818.098511 975.991150,818.394653 
	C971.026123,818.811279 965.821777,819.336365 961.038940,818.317200 
	C952.401306,816.476746 943.996033,818.516418 935.501526,818.622314 
	C930.605103,818.683350 928.637146,821.146240 928.542297,826.000854 
	C928.386047,833.997803 928.524902,842.000122 928.485413,849.999939 
	C928.472961,852.528259 929.894531,854.437988 931.000000,856.500000 
"/>
<path fill="none" opacity="1.000000" stroke="#FFFFFF" stroke-linecap="round" stroke-linejoin="round" stroke-width="7.000000"
	d="
M188.000000,819.000000 
	C180.848511,818.282410 173.490829,820.520386 166.500000,817.500000 
	C157.071350,820.800903 146.901901,817.045471 137.519379,820.551880 
	C136.376968,820.978760 135.571533,821.156799 134.486786,820.522583 
	C131.053162,818.515076 127.229530,819.037537 123.499992,819.001160 
	C122.666733,818.993042 121.773308,819.199524 121.009125,818.969666 
	C111.328606,816.057556 101.674957,820.501953 91.994827,819.034119 
	C89.182739,818.607666 87.031853,820.762207 84.500000,821.312561 
	C84.500000,833.833313 84.500000,846.166687 84.500000,858.500000 
"/>
<path fill="none" opacity="1.000000" stroke="#FFFFFF" stroke-linecap="round" stroke-linejoin="round" stroke-width="13.000000"
	d="
M1041.000000,414.000031 
	C1034.333374,415.833374 1027.661255,417.647522 1021.002136,419.507629 
	C1017.307861,420.539551 1013.573059,421.581940 1010.534180,424.042206 
	C1009.282349,425.055695 1008.055359,425.851501 1006.507324,425.470245 
	C1002.119873,424.389740 998.121826,425.651886 993.978882,426.931580 
	C987.223755,429.018188 980.333069,430.665710 973.500183,432.500580 
	C971.143555,433.133453 969.352234,431.840057 967.500000,430.750000 
"/>
<path fill="none" opacity="1.000000" stroke="#FFFFFF" stroke-linecap="round" stroke-linejoin="round" stroke-width="13.000000"
	d="
M722.750000,74.500000 
	C719.884583,85.245010 718.197754,96.395798 711.981934,105.988274 
	C711.367126,106.936996 710.976685,107.836914 710.979248,109.000046 
	C711.001526,118.918083 708.169617,128.251877 704.973511,137.490845 
	C704.067810,140.109039 703.409363,142.740585 703.250000,145.500000 
"/>
<path fill="none" opacity="1.000000" stroke="#FFFFFF" stroke-linecap="round" stroke-linejoin="round" stroke-width="13.000000"
	d="
M696.500000,66.000000 
	C696.550110,67.347908 697.853271,68.207352 697.112366,70.045303 
	C694.387451,76.804939 694.083679,84.301254 691.041504,91.018806 
	C690.421143,92.388809 689.705750,94.199898 690.108887,95.465279 
	C691.827820,100.861382 688.569702,104.618362 686.666016,109.070976 
	C684.007385,115.289406 682.496216,121.998863 680.511963,128.503647 
	C680.418945,128.808609 680.614746,129.223007 680.482849,129.491577 
	C678.415283,133.701630 677.841675,138.013458 679.500000,142.500000 
"/>
<path fill="none" opacity="1.000000" stroke="#FFFFFF" stroke-linecap="round" stroke-linejoin="round" stroke-width="13.000000"
	d="
M928.000000,205.500000 
	C928.000000,207.679077 928.000000,209.858139 928.000000,210.988739 
	C920.667480,218.666199 913.621460,226.119766 906.471619,233.472412 
	C904.830872,235.159683 903.001709,237.486984 900.971558,237.833344 
	C890.849243,239.560318 887.424255,248.319458 882.003418,255.002762 
	C879.788269,257.733765 879.073425,262.295471 874.000000,261.500000 
"/>
<path fill="none" opacity="1.000000" stroke="#FFFFFF" stroke-linecap="round" stroke-linejoin="round" stroke-width="12.000000"
	d="
M1033.000000,380.750000 
	C1028.465820,378.072235 1023.365112,378.751984 1018.497009,378.589600 
	C1011.598389,378.359497 1004.669800,378.843079 998.000000,376.500000 
"/>
<path fill="none" opacity="1.000000" stroke="#FFFFFF" stroke-linecap="round" stroke-linejoin="round" stroke-width="6.000000"
	d="
M163.000000,858.500000 
	C161.908188,867.983765 162.516098,877.504517 162.612167,886.998840 
	C162.658188,891.545166 161.900894,895.385803 158.500000,898.500000 
"/>
<path fill="none" opacity="1.000000" stroke="#FFFFFF" stroke-linecap="round" stroke-linejoin="round" stroke-width="13.000000"
	d="
M1025.000000,541.500000 
	C1014.508850,546.177734 1003.490540,549.297119 992.505188,552.517761 
	C992.130737,552.627625 991.833313,553.000000 991.500000,553.250000 
	C991.583374,553.333313 991.666687,553.416626 991.750000,553.500000 
"/>
<path fill="none" opacity="1.000000" stroke="#FFFFFF" stroke-linecap="round" stroke-linejoin="round" stroke-width="14.000000"
	d="
M152.500000,550.500000 
	C144.131989,554.198975 135.521851,551.624512 126.999741,551.521667 
	C118.724251,551.421814 116.762428,553.712280 117.250000,562.500000 
"/>
<path fill="none" opacity="1.000000" stroke="#FFFFFF" stroke-linecap="round" stroke-linejoin="round" stroke-width="6.000000"
	d="
M756.000000,485.000000 
	C748.055542,485.919708 740.492737,488.725281 732.515137,489.632965 
	C729.422424,489.984894 726.500000,491.833374 723.500000,493.000061 
"/>
<path fill="none" opacity="1.000000" stroke="#FFFFFF" stroke-linecap="round" stroke-linejoin="round" stroke-width="6.000000"
	d="
M985.000000,821.500000 
	C983.758728,823.583984 984.531799,825.831116 984.519958,828.000122 
	C984.471924,836.833130 984.500000,845.666687 984.500000,854.500000 
"/>
<path fill="none" opacity="1.000000" stroke="#FFFFFF" stroke-linecap="round" stroke-linejoin="round" stroke-width="6.000000"
	d="
M1014.000000,650.500000 
	C1012.218994,654.721985 1012.626343,659.241211 1013.124634,663.485352 
	C1014.612122,676.153259 1013.564209,688.848938 1013.735107,701.503601 
	C1013.930603,715.979187 1013.710388,730.500488 1013.500000,745.000000 
"/>
<path fill="none" opacity="1.000000" stroke="#FFFFFF" stroke-linecap="round" stroke-linejoin="round" stroke-width="7.000000"
	d="
M1005.000000,784.000000 
	C1005.166687,792.666687 1005.373901,801.332886 1005.471436,810.000305 
	C1005.495850,812.164856 1005.166687,814.333313 1005.000000,816.500000 
"/>
<path fill="none" opacity="1.000000" stroke="#FFFFFF" stroke-linecap="round" stroke-linejoin="round" stroke-width="6.000000"
	d="
M929.500000,749.500000 
	C928.534973,760.400940 926.194397,771.365356 931.000000,782.000000 
"/>
<path fill="none" opacity="1.000000" stroke="#FFFFFF" stroke-linecap="round" stroke-linejoin="round" stroke-width="5.000000"
	d="
M106.000000,650.000000 
	C106.000000,671.166687 106.000000,692.333313 106.000000,713.500000 
"/>
<path fill="none" opacity="1.000000" stroke="#FFFFFF" stroke-linecap="round" stroke-linejoin="round" stroke-width="8.000000"
	d="
M136.000000,821.500000 
	C134.869461,832.151611 135.809998,842.835571 135.500000,853.500000 
"/>
<path fill="none" opacity="1.000000" stroke="#FFFFFF" stroke-linecap="round" stroke-linejoin="round" stroke-width="6.000000"
	d="
M176.500000,681.500000 
	C176.980560,691.995300 176.328949,702.485046 177.147354,713.027405 
	C177.609406,718.979492 177.069199,725.373840 176.359329,731.483643 
	C175.785736,736.420349 176.340866,740.957520 178.000000,745.500000 
"/>
<path fill="none" opacity="1.000000" stroke="#FFFFFF" stroke-linecap="round" stroke-linejoin="round" stroke-width="6.000000"
	d="
M942.500000,649.500000 
	C942.500000,668.666687 942.500000,687.833313 942.500000,707.000000 
	C942.500000,718.000000 942.477234,729.000122 942.522461,739.999878 
	C942.530029,741.833862 942.833374,743.666687 943.000000,745.500000 
"/>
<path fill="none" opacity="1.000000" stroke="#FFFFFF" stroke-linecap="round" stroke-linejoin="round" stroke-width="7.000000"
	d="
M114.500000,784.500000 
	C115.232201,795.166687 115.358749,805.833313 114.500000,816.500000 
"/>
<path fill="none" opacity="1.000000" stroke="#FFFFFF" stroke-linecap="round" stroke-linejoin="round" stroke-width="12.000000"
	d="
M487.750000,52.500000 
	C489.110565,59.080551 493.133179,64.664864 494.885559,71.031502 
	C496.605988,77.282082 500.527710,81.437546 505.500000,85.000000 
"/>
<path fill="none" opacity="1.000000" stroke="#FFFFFF" stroke-linecap="round" stroke-linejoin="round" stroke-width="6.000000"
	d="
M613.000000,640.500000 
	C617.843079,640.518616 622.589966,640.191650 627.075256,643.135315 
	C630.563599,645.424622 634.971191,644.297791 638.997803,644.536560 
	C644.013245,644.833862 649.108459,645.003174 653.500000,648.000000 
"/>
<path fill="none" opacity="1.000000" stroke="#FFFFFF" stroke-linecap="round" stroke-linejoin="round" stroke-width="6.000000"
	d="
M105.500000,714.500000 
	C105.500000,723.000000 105.471329,731.500183 105.522713,739.999878 
	C105.533798,741.834106 105.833328,743.666687 105.999992,745.500000 
"/>
<path fill="none" opacity="1.000000" stroke="#FFFFFF" stroke-linecap="round" stroke-linejoin="round" stroke-width="5.000000"
	d="
M152.000000,749.500000 
	C151.815384,759.666382 152.532028,769.847534 151.500000,780.000000 
"/>
<path fill="none" opacity="1.000000" stroke="#FFFFFF" stroke-linecap="round" stroke-linejoin="round" stroke-width="11.000000"
	d="
M128.000000,405.500000 
	C131.548706,401.812103 135.993912,400.307617 140.998123,399.972076 
	C144.139526,399.761475 147.269791,399.238586 149.992065,397.487640 
	C153.612534,395.158997 157.552109,394.917542 161.483795,396.056000 
	C166.275177,397.443390 171.376389,397.464325 176.000031,399.499939 
	C179.644684,401.104523 182.151306,397.302063 185.500000,397.500000 
"/>
<path fill="none" opacity="1.000000" stroke="#FFFFFF" stroke-linecap="round" stroke-linejoin="round" stroke-width="6.000000"
	d="
M176.500000,650.500000 
	C176.801895,660.497742 175.880692,670.515869 177.000000,680.500000 
"/>
<path fill="none" opacity="1.000000" stroke="#FFFFFF" stroke-linecap="round" stroke-linejoin="round" stroke-width="4.000000"
	d="
M100.000000,749.500000 
	C100.755730,759.500000 101.288391,769.500000 100.000000,779.500000 
"/>
<path fill="none" opacity="1.000000" stroke="#FFFFFF" stroke-linecap="round" stroke-linejoin="round" stroke-width="8.000000"
	d="
M968.000000,750.000000 
	C968.917786,759.820618 968.363647,769.666138 968.500000,779.500000 
"/>
<path fill="none" opacity="1.000000" stroke="#FFFFFF" stroke-linecap="round" stroke-linejoin="round" stroke-width="6.000000"
	d="
M773.500000,560.000000 
	C768.969788,560.693420 764.660095,561.448853 760.349792,563.714233 
	C756.748474,565.606995 751.842041,565.104553 747.497314,565.467896 
	C743.821777,565.775391 739.984497,565.408020 737.500000,569.000000 
"/>
<path fill="none" opacity="1.000000" stroke="#FFFFFF" stroke-linecap="round" stroke-linejoin="round" stroke-width="6.000000"
	d="
M251.000000,650.500000 
	C249.914627,657.143677 250.313171,663.863831 250.722336,670.486267 
	C250.887039,673.152100 249.977905,675.886780 251.000000,678.500000 
"/>
<path fill="none" opacity="1.000000" stroke="#FFFFFF" stroke-linecap="round" stroke-linejoin="round" stroke-width="13.000000"
	d="
M1019.500000,356.500000 
	C1015.500000,358.166656 1011.532532,359.917450 1007.492126,361.479614 
	C1001.927124,363.631287 998.964111,368.297424 996.000000,373.000000 
"/>
<path fill="none" opacity="1.000000" stroke="#FFFFFF" stroke-linecap="round" stroke-linejoin="round" stroke-width="14.000000"
	d="
M757.250000,86.000000 
	C760.539856,90.854721 756.091980,94.669685 755.450684,98.992683 
	C755.049255,101.698700 754.305847,104.377731 753.472168,106.991135 
	C751.506958,113.151360 750.038391,118.737144 754.197021,125.195091 
	C756.836365,129.293716 757.103455,135.069962 760.000000,139.500000 
"/>
<path fill="none" opacity="1.000000" stroke="#FFFFFF" stroke-linecap="round" stroke-linejoin="round" stroke-width="11.000000"
	d="
M892.000000,213.500000 
	C893.633728,217.607986 893.649475,221.938354 892.386597,225.964432 
	C890.823792,230.946335 890.496277,235.666672 892.500000,240.500000 
"/>
<path fill="none" opacity="1.000000" stroke="#FFFFFF" stroke-linecap="round" stroke-linejoin="round" stroke-width="7.000000"
	d="
M57.500000,819.000000 
	C62.666668,819.000000 67.839325,819.152710 72.998047,818.950317 
	C76.910713,818.796753 80.567596,819.354736 84.000000,821.250000 
"/>
<path fill="none" opacity="1.000000" stroke="#FFFFFF" stroke-linecap="round" stroke-linejoin="round" stroke-width="5.000000"
	d="
M816.000000,354.500000 
	C813.543274,358.357483 809.985840,359.592163 805.499756,359.578827 
	C799.973755,359.562378 795.579956,362.569702 791.500000,366.000000 
"/>
<path fill="none" opacity="1.000000" stroke="#FFFFFF" stroke-linecap="round" stroke-linejoin="round" stroke-width="7.000000"
	d="
M957.000000,892.500000 
	C951.112549,894.350403 945.023865,893.803406 938.999634,893.987305 
	C936.501953,894.063660 934.000000,894.000000 931.500000,894.000000 
"/>
<path fill="none" opacity="1.000000" stroke="#FFFFFF" stroke-linecap="round" stroke-linejoin="round" stroke-width="7.000000"
	d="
M188.000000,893.500000 
	C179.666672,892.480408 171.333328,893.293640 163.000000,893.500000 
"/>
<path fill="none" opacity="1.000000" stroke="#FFFFFF" stroke-linecap="round" stroke-linejoin="round" stroke-width="8.000000"
	d="
M713.000000,327.000000 
	C714.264587,321.425262 713.103394,316.120270 710.959106,311.017181 
	C709.588623,307.755463 710.310791,304.286713 709.685059,299.768982 
	C701.138306,305.004883 692.220947,303.231476 683.500000,303.500000 
"/>
<path fill="none" opacity="1.000000" stroke="#FFFFFF" stroke-linecap="round" stroke-linejoin="round" stroke-width="6.000000"
	d="
M652.500000,426.500000 
	C652.333313,434.666656 652.166626,442.833344 652.000000,451.000000 
"/>
<path fill="none" opacity="1.000000" stroke="#FFFFFF" stroke-linecap="round" stroke-linejoin="round" stroke-width="5.000000"
	d="
M645.000000,338.500000 
	C647.873718,341.678314 652.169495,342.699432 655.690308,344.657837 
	C660.295410,347.219269 664.613220,350.410889 670.198608,352.453522 
	C665.567688,358.104736 667.099792,364.890961 665.500000,371.000000 
"/>
<path fill="none" opacity="1.000000" stroke="#FFFFFF" stroke-linecap="round" stroke-linejoin="round" stroke-width="6.000000"
	d="
M680.500000,310.500000 
	C676.267456,317.069946 674.853943,324.288879 675.468872,332.002472 
	C675.533813,332.817352 675.166626,333.666656 675.000000,334.500000 
"/>
<path fill="none" opacity="1.000000" stroke="#FFFFFF" stroke-linecap="round" stroke-linejoin="round" stroke-width="6.000000"
	d="
M579.000000,352.500000 
	C585.216003,356.986084 591.832458,360.748108 599.005249,363.486328 
	C600.134583,363.917419 601.461487,364.677368 602.480347,364.421661 
	C613.708862,361.603943 624.218994,365.857849 635.007080,367.452026 
	C641.301453,368.382141 647.680481,369.431396 653.995056,369.285919 
	C658.080627,369.191803 661.448486,372.172913 665.500000,371.000000 
"/>
<path fill="none" opacity="1.000000" stroke="#FFFFFF" stroke-linecap="round" stroke-linejoin="round" stroke-width="6.000000"
	d="
M188.000000,781.500000 
	C183.833328,782.716919 179.662918,781.538513 175.501175,781.446716 
	C172.117447,781.372131 168.943405,781.772827 166.000000,783.500000 
"/>
<path fill="none" opacity="1.000000" stroke="#FFFFFF" stroke-linecap="round" stroke-linejoin="round" stroke-width="8.000000"
	d="
M692.250000,261.500000 
	C693.417603,265.831726 692.452576,269.697266 689.476990,272.979126 
	C687.494507,275.165680 686.905823,277.653046 686.975586,280.500610 
	C687.083618,284.908661 684.194031,288.588837 683.844055,292.987579 
	C683.703125,294.759125 682.913513,296.608124 683.016418,298.499115 
	C683.202576,301.917023 682.318970,304.939636 680.000000,307.500000 
"/>
<path fill="none" opacity="1.000000" stroke="#FFFFFF" stroke-linecap="round" stroke-linejoin="round" stroke-width="6.000000"
	d="
M620.000000,698.500000 
	C623.118164,700.194031 626.560242,700.608582 630.000916,700.991882 
	C633.610474,701.393982 637.172729,701.887512 640.000000,704.500000 
"/>
<path fill="none" opacity="1.000000" stroke="#FFFFFF" stroke-linecap="round" stroke-linejoin="round" stroke-width="3.000000"
	d="
M1000.500000,649.500000 
	C992.500000,649.126648 984.500000,647.997498 976.500000,649.500000 
"/>
<path fill="none" opacity="1.000000" stroke="#FFFFFF" stroke-linecap="round" stroke-linejoin="round" stroke-width="8.000000"
	d="
M693.500000,268.000000 
	C699.113159,270.432343 698.982117,275.776855 699.378601,280.510162 
	C699.707275,284.432953 700.962769,287.610260 703.476990,290.519897 
	C706.000854,293.440613 707.828003,296.802948 709.000000,300.500000 
"/>
<path fill="none" opacity="1.000000" stroke="#FFFFFF" stroke-linecap="round" stroke-linejoin="round" stroke-width="7.000000"
	d="
M665.000000,372.000000 
	C663.861511,377.619293 661.875061,383.188721 664.000000,389.000000 
"/>
<path fill="none" opacity="1.000000" stroke="#FFFFFF" stroke-linecap="round" stroke-linejoin="round" stroke-width="13.000000"
	d="
M567.000000,49.500000 
	C561.616028,50.435200 555.960144,50.125584 550.998474,52.997410 
	C550.676575,53.183765 550.147461,53.563858 550.026917,53.466644 
	C545.864807,50.110706 540.563049,51.779812 536.000000,50.250000 
"/>
<path fill="none" opacity="1.000000" stroke="#FFFFFF" stroke-linecap="round" stroke-linejoin="round" stroke-width="8.000000"
	d="
M818.000000,426.000000 
	C819.239807,431.375275 821.360596,436.157196 826.493958,439.010834 
	C829.307373,440.574768 831.095276,443.019348 832.265991,445.993713 
	C833.187744,448.335144 833.938049,450.801758 836.000000,452.500000 
"/>
<path fill="none" opacity="1.000000" stroke="#FFFFFF" stroke-linecap="round" stroke-linejoin="round" stroke-width="6.000000"
	d="
M672.000000,336.500000 
	C671.251709,341.550323 672.152527,346.930511 669.000000,351.500000 
"/>
<path fill="none" opacity="1.000000" stroke="#FFFFFF" stroke-linecap="round" stroke-linejoin="round" stroke-width="4.000000"
	d="
M623.000000,322.500000 
	C625.405701,326.183868 629.565430,327.926971 632.453003,331.043549 
	C633.737183,332.429535 635.133667,331.798615 636.500000,332.000000 
"/>
<path fill="none" opacity="1.000000" stroke="#FFFFFF" stroke-linecap="round" stroke-linejoin="round" stroke-width="6.000000"
	d="
M680.500000,369.500000 
	C675.963623,371.657043 671.186829,370.448975 666.500000,370.500000 
"/>
<path fill="none" opacity="1.000000" stroke="#FFFFFF" stroke-linecap="round" stroke-linejoin="round" stroke-width="11.000000"
	d="
M284.500000,149.500000 
	C278.600983,147.014191 275.676270,151.268616 273.105591,155.071381 
	C270.629456,158.734314 267.946838,161.404541 263.535339,162.627502 
	C260.957397,163.342178 257.877014,164.396118 257.500000,168.000000 
"/>
<path fill="none" opacity="1.000000" stroke="#FFFFFF" stroke-linecap="round" stroke-linejoin="round" stroke-width="6.000000"
	d="
M812.000000,344.500000 
	C808.166687,344.833344 804.333313,345.166687 800.500000,345.500000 
"/>
<path fill="none" opacity="1.000000" stroke="#FFFFFF" stroke-linecap="round" stroke-linejoin="round" stroke-width="6.000000"
	d="
M687.500000,282.500000 
	C691.163879,284.141174 694.925903,285.217682 699.000000,284.500000 
"/>
<path fill="none" opacity="1.000000" stroke="#FFFFFF" stroke-linecap="round" stroke-linejoin="round" stroke-width="4.000000"
	d="
M1089.500000,647.000000 
	C1086.327759,650.008606 1081.856079,647.300171 1078.500000,649.500000 
"/>
<path fill="none" opacity="1.000000" stroke="#FFFFFF" stroke-linecap="round" stroke-linejoin="round" stroke-width="5.000000"
	d="
M657.000000,396.500000 
	C658.423340,400.953461 659.765381,405.061462 657.754028,410.101379 
	C656.159058,414.097870 656.833313,419.000000 656.500000,423.500000 
"/>
<path fill="none" opacity="1.000000" stroke="#FFFFFF" stroke-linecap="round" stroke-linejoin="round" stroke-width="3.000000"
	d="
M745.000000,444.000000 
	C742.166687,443.833344 739.333313,443.666687 736.500000,443.500000 
"/>
<path fill="none" opacity="1.000000" stroke="#FFFFFF" stroke-linecap="round" stroke-linejoin="round" stroke-width="3.000000"
	d="
M844.500000,453.500000 
	C841.666687,454.326569 838.833313,451.982941 836.000000,453.500000 
"/>
<path fill="none" opacity="1.000000" stroke="#FFFFFF" stroke-linecap="round" stroke-linejoin="round" stroke-width="3.000000"
	d="
M833.000000,367.000000 
	C830.916870,369.229858 827.892151,367.928772 825.500000,369.000000 
"/>
<path fill="none" opacity="1.000000" stroke="#FFFFFF" stroke-linecap="round" stroke-linejoin="round" stroke-width="3.000000"
	d="
M241.500000,173.500000 
	C241.169495,176.033905 242.423157,178.884628 240.000000,181.000000 
"/>
<path fill="none" opacity="1.000000" stroke="#FFFFFF" stroke-linecap="round" stroke-linejoin="round" stroke-width="3.000000"
	d="
M83.000000,489.000000 
	C80.682373,490.701141 78.014275,489.773743 75.500000,490.000000 
"/>
<path fill="none" opacity="1.000000" stroke="#FFFFFF" stroke-linecap="round" stroke-linejoin="round" stroke-width="3.000000"
	d="
M155.500000,527.000000 
	C153.500000,527.000000 151.500000,527.000000 149.500000,527.000000 
"/>
</svg>